<?xml version="1.0" standalone="no"?>
<!DOCTYPE svg PUBLIC "-//W3C//DTD SVG 20010904//EN" "http://www.w3.org/TR/2001/REC-SVG-20010904/DTD/svg10.dtd">
<!-- Created using Krita: https://krita.org -->
<svg xmlns="http://www.w3.org/2000/svg" 
    xmlns:xlink="http://www.w3.org/1999/xlink"
    xmlns:krita="http://krita.org/namespaces/svg/krita"
    xmlns:sodipodi="http://sodipodi.sourceforge.net/DTD/sodipodi-0.dtd"
    width="376.56pt"
    height="286.32pt"
    viewBox="0 0 376.56 286.32">
<defs/>
<rect id="shape0" transform="translate(-0.959999999999994, 0.960000000000008)" fill="#22c781" fill-rule="evenodd" width="376.56" height="280.56"/><path id="shape01" transform="translate(33.599991689495, 25.679988213206)" fill="#e2992a" fill-rule="evenodd" stroke-opacity="0" stroke="#000000" stroke-width="0" stroke-linecap="square" stroke-linejoin="bevel" d="M36.96 3.36L56.64 79.2L0 212.64L299.04 212.64L298.56 110.4L275.04 67.2L300 41.28L297.6 0L236.64 1.92L85.92 1.44L36.96 3.36" sodipodi:nodetypes="ccccccccccc"/><path id="shape1" transform="translate(66.240000528637, 29.520000641659)" fill="#ffffff" fill-rule="evenodd" stroke-opacity="0" stroke="#000000" stroke-width="0" stroke-linecap="square" stroke-linejoin="bevel" d="M99.36 49.44L82.08 32.64C92.9244 26.3486 97.5971 17.3143 99.84 7.2C106.336 9.2489 111.295 12.2638 118.08 11.4C126.987 10.8442 131.567 4.87855 136.8 0C125.871 20.9245 133.973 41.4995 126.72 57.12L148.8 68.16L153.12 76.32L158.88 73.92C161.237 83.3736 170.275 87.1011 176.64 93.12C185.67 86.2902 192.249 77.7091 196.8 67.68C201.091 75.8693 209.738 79.7018 216.96 84.96C215.905 102.652 214.209 120.487 221.52 136.32L247.68 172.8C246.64 183.86 243.265 194.336 227.04 201.6L38.4 201.6C29.2964 191.824 18.2332 190.487 12.72 177.12C-3.97332 165.592 4.62431 144.576 0 129.6C19.887 127.569 32.5251 105.244 47.52 89.76L56.88 63.36L69.84 51.36C69.0169 63.123 73.8239 72.54 80.64 81.12C91.2533 72.6178 104.954 65.9163 108.48 53.28L99.36 49.44" sodipodi:nodetypes="cccccccccccccccccccccccc"/><path id="shape2" transform="translate(288.355245186842, 27.11998813173)" fill="#935c09" fill-rule="evenodd" stroke-opacity="0" stroke="#000000" stroke-width="0" stroke-linecap="square" stroke-linejoin="bevel" d="M1.56473 23.04C-1.27836 13.652 -0.823176 5.72982 7.80473 1.44L43.8047 0C29.7424 13.3674 20.4773 28.7336 21.7247 48.48L1.56473 23.04" sodipodi:nodetypes="ccccc"/><path id="shape3" transform="translate(78.239989163754, 26.159988186047)" fill="#935c09" fill-rule="evenodd" stroke-opacity="0" stroke="#000000" stroke-width="0" stroke-linecap="square" stroke-linejoin="bevel" d="M40.32 8.64C31.8304 17.3365 24.3498 25.6967 19.68 33.12C4.50709 30.1153 0.867935 19.4214 0.96 6.24L0 0L45.6 1.44L40.32 8.64" sodipodi:nodetypes="cccccc"/><path id="shape4" transform="translate(96.2229582594237, 32.879987805828)" fill="#935c09" fill-rule="evenodd" stroke-opacity="0" stroke="#000000" stroke-width="0" stroke-linecap="square" stroke-linejoin="bevel" d="M44.897 0C34.2652 17.3296 19.5882 33.8502 14.657 52.32C10.1942 64 11.3498 75.68 10.337 87.36C6.41803 75.0072 -1.52652 65.8748 0.25703 48.96C9.74652 26.4088 23.576 13.9842 36.737 0L44.897 0" sodipodi:nodetypes="cccccc"/><path id="shape5" transform="translate(280.31997773002, 81.83998503566)" fill="#935c09" fill-rule="evenodd" stroke-opacity="0" stroke="#000000" stroke-width="0" stroke-linecap="square" stroke-linejoin="bevel" d="M0 0C14.2717 28.8622 30.732 57.4668 24 88.8C30.8451 74.7025 39.0049 61.2624 36 42.24C30.4593 15.2414 13.9758 10.1283 0 0" sodipodi:nodetypes="cccc"/><path id="shape6" transform="translate(191.519982754345, 29.519987995938)" fill="#dba759" fill-rule="evenodd" stroke-opacity="0" stroke="#000000" stroke-width="0" stroke-linecap="square" stroke-linejoin="bevel" d="M5.28 36.48L36.96 6.72L62.88 0L73.92 12L79.68 42.72L60.96 35.04L76.8 67.2L53.28 94.56C46.5455 89.2112 38.3012 85.784 34.8 76.32L27.36 77.76L23.4 67.92L0 56.64L5.28 36.48" sodipodi:nodetypes="ccccccccccccc"/><path id="shape7" transform="translate(131.039986176317, 61.199986203476)" fill="#dba759" fill-rule="evenodd" stroke-opacity="0" stroke="#000000" stroke-width="0" stroke-linecap="square" stroke-linejoin="bevel" d="M14.88 50.4C26.9949 42.8862 38.3564 34.8073 44.16 22.56L19.2 0L2.4 7.2L0 20.64L4.8 24C3.4712 34.2563 8.68833 42.3306 13.92 50.4" sodipodi:nodetypes="ccccccc"/><path id="shape8" transform="translate(139.199985714623, 77.999985252928)" fill="#000000" fill-rule="evenodd" stroke-opacity="0" stroke="#000000" stroke-width="0" stroke-linecap="square" stroke-linejoin="bevel" d="M25.92 5.28L13.44 0L0 0.48L11.04 3.36L25.92 5.28" sodipodi:nodetypes="ccccc"/><path id="shape9" transform="translate(226.079980798932, 84.719984872709)" fill="#000000" fill-rule="evenodd" stroke-opacity="0" stroke="#000000" stroke-width="0" stroke-linecap="square" stroke-linejoin="bevel" d="M0 4.32L10.56 0L18.72 3.84L34.08 6.24L18.72 10.08L9.12 6.24L0 4.32" sodipodi:nodetypes="ccccccc"/><path id="shape10" transform="translate(162.878051296513, 113.232333524103)" fill="#000000" fill-opacity="0.827450980392157" fill-rule="evenodd" stroke-opacity="0" stroke="#000000" stroke-width="0" stroke-linecap="square" stroke-linejoin="bevel" d="M2.24193 9.58765C5.15562 5.71626 7.2296 2.79953 15.2019 0.767649C28.6651 -1.14282 29.2006 1.02911 34.4019 1.72765C39.0212 4.92629 45.0491 6.26308 44.6619 12.6476C46.6181 17.8917 46.087 21.4777 45.2019 24.8276C38.9742 26.9651 35.1146 30.4319 31.7619 33.5276C24.3776 33.5655 24.3779 37.2956 21.2619 39.4676C17.8515 35.2626 12.7685 31.6094 3.14193 29.8676L0.621933 22.0676C0.0915404 18.9465 -1.02927 15.3944 2.24193 10.8476" sodipodi:nodetypes="cccccccccc"/><path id="shape11" transform="translate(146.399985307245, 160.559980581664)" fill="#000000" fill-rule="evenodd" stroke-opacity="0" stroke="#000000" stroke-width="0" stroke-linecap="square" stroke-linejoin="bevel" d="M0 5.28C4.48 6.4 8.60808 8.22384 13.44 8.64C24.0864 7.18654 31.186 3.45039 37.92 0C47.7676 5.51457 57.1418 11.3673 69.12 15.36C75.9385 15.557 81.4143 13.0687 87.36 11.52L90.72 23.52C88.9546 20.96 86.6094 18.4 85.44 15.84C80.4784 17.128 75.218 19.9101 70.56 19.68C59.8879 16.4563 48.5794 15.1418 38.76 9.36C33.6619 11.5928 17.8368 11.4702 13.2 12.48L0 5.28" sodipodi:nodetypes="ccccccccccc"/><path id="shape12" transform="translate(135.075414279844, 120.299979801867)" fill="#ffffff" fill-rule="evenodd" stroke-opacity="0.352941176470588" stroke="#a39e96" stroke-width="5.028" stroke-linecap="square" stroke-linejoin="bevel" d="M8.86457 0C-2.11543 20.5181 -2.11543 33.0377 4.60457 53.46" sodipodi:nodetypes="cc"/><path id="shape13" transform="translate(246.719976054839, 132.719979024039)" fill="#ffffff" fill-rule="evenodd" stroke-opacity="0.352941176470588" stroke="#a39e96" stroke-width="5.028" stroke-linecap="square" stroke-linejoin="bevel" d="M10.08 0C12.5557 19.6647 7.1083 43.4745 0 55.44" sodipodi:nodetypes="cc"/><path id="shape14" transform="translate(152.759982422543, 183.479975647772)" fill="#ffffff" fill-rule="evenodd" stroke-opacity="0.352941176470588" stroke="#a39e96" stroke-width="5.028" stroke-linecap="square" stroke-linejoin="bevel" d="M0 0C33.2679 14.4899 47.7676 15.2029 71.46 8.28" sodipodi:nodetypes="cc"/><path id="shape15" transform="translate(182.639997955285, 132.479997822619)" fill="none" stroke="#000000" stroke-width="0.6744" stroke-linecap="square" stroke-linejoin="bevel" d="M0 0C0 6.8473 1.2 12.3461 1.2 18.72" sodipodi:nodetypes="cc"/><path id="shape16" transform="translate(188.639997913827, 130.799997834227)" fill="#000000" fill-rule="evenodd" stroke-opacity="0" stroke="#000000" stroke-width="0" stroke-linecap="square" stroke-linejoin="bevel" d="M13.92 6L10.8 7.44L8.4 6.72L5.52 1.68L4.32 0L0.72 3.12L0 6L4.56 8.88L7.44 10.08L13.92 6" sodipodi:nodetypes="cccccccccc"/><path id="shape17" transform="translate(166.079998069709, 129.839997840861)" fill="#000000" fill-rule="evenodd" stroke-opacity="0" stroke="#000000" stroke-width="0" stroke-linecap="square" stroke-linejoin="bevel" d="M5.52 0.72L9.84 0L10.56 3.6L10.32 6.96L7.44 9.84L3.6 9.12L0 7.68L3.36 6.72L5.76 4.56L6.48 2.16L5.52 0.72" sodipodi:nodetypes="ccccccccccc"/><path id="shape18" transform="translate(167.999998056443, 114.719997945335)" fill="#ffffff" fill-opacity="0.541176470588235" fill-rule="evenodd" stroke-opacity="0" stroke="#000000" stroke-width="0" stroke-linecap="square" stroke-linejoin="bevel" d="M0 7.2C2.37234 5.45085 4.61169 3.36923 7.2 2.16C11.9144 -0.186181 16.7721 0.189065 21.6 0C25.0802 0.438546 28.4398 1.72145 31.68 3.84L36.24 9.84L30.24 6.06C28.2056 5.01691 26.7082 4.1729 22.275 3.675L13.515 3.96L7.365 4.98L0 7.2" sodipodi:nodetypes="cccccccccc"/><path id="shape19" transform="translate(222.95999754795, 130.560022425532)" fill="none" stroke="#343434" stroke-width="0.048" stroke-linecap="square" stroke-linejoin="bevel" d="M0 3.41998C22.3989 -4.85466 56.3316 1.38243 72.36 27.66" sodipodi:nodetypes="cc"/><path id="shape20" transform="translate(224.459997677061, 149.465386015444)" fill="none" stroke="#343434" stroke-width="0.048" stroke-linecap="square" stroke-linejoin="bevel" d="M0 1.31461C21.7813 -2.71194 49.479 2.10055 52.8 21.4746" sodipodi:nodetypes="cc"/><path id="shape21" transform="translate(227.999997641872, 140.56966869437)" fill="none" stroke="#343434" stroke-width="0.048" stroke-linecap="square" stroke-linejoin="bevel" d="M0 3.67033C15.0035 -6.1454 59.8311 4.0851 60.48 30.0703" sodipodi:nodetypes="cc"/><path id="shape22" transform="translate(226.559997651821, 159.119997638555)" fill="none" stroke="#343434" stroke-width="0.048" stroke-linecap="square" stroke-linejoin="bevel" d="M0 0C15.5371 0 53.4114 18.7657 57.6 35.52" sodipodi:nodetypes="cc"/><path id="shape23" transform="translate(97.439998543997, 126.273183403268)" fill="none" stroke="#343434" stroke-width="0.048" stroke-linecap="square" stroke-linejoin="bevel" d="M60 13.6468C42.6796 2.09337 20.391 -2.33067 0 1.16681" sodipodi:nodetypes="cc"/><path id="shape24" transform="translate(85.439998626913, 137.804235159645)" fill="none" stroke="#343434" stroke-width="0.048" stroke-linecap="square" stroke-linejoin="bevel" d="M64.32 12.6758C40.2341 -5.072 21.88 0.276599 0 2.59577" sodipodi:nodetypes="cc"/><path id="shape25" transform="translate(90.239998593746, 157.112186022269)" fill="none" stroke="#343434" stroke-width="0.048" stroke-linecap="square" stroke-linejoin="bevel" d="M55.2 1.04781C34.5923 1.04781 0 -0.359523 0 0.0878116" sodipodi:nodetypes="cc"/><path id="shape26" transform="translate(91.679998583796, 167.759997578855)" fill="none" stroke="#343434" stroke-width="0.048" stroke-linecap="square" stroke-linejoin="bevel" d="M49.44 0C34.0199 0 14.3305 0.48 0 0.48" sodipodi:nodetypes="cc"/><path id="shape27" transform="translate(118.559998398072, 184.919997460297)" fill="#c8c6c2" fill-opacity="0.666666666666667" fill-rule="evenodd" stroke-opacity="0" stroke="#000000" stroke-width="0" stroke-linecap="square" stroke-linejoin="bevel" d="M28.8 0L65.76 12.24L106.56 9L125.28 7.56L143.64 43.2L133.92 53.4L1.8 53.4L0 37.8L5.04 15.84L28.8 0" sodipodi:nodetypes="cccccccccc"/>
</svg>
