<?xml version="1.0" standalone="no"?>
<!DOCTYPE svg PUBLIC "-//W3C//DTD SVG 20010904//EN" "http://www.w3.org/TR/2001/REC-SVG-20010904/DTD/svg10.dtd">
<!-- Created using Krita: https://krita.org -->
<svg xmlns="http://www.w3.org/2000/svg" 
    xmlns:xlink="http://www.w3.org/1999/xlink"
    xmlns:krita="http://krita.org/namespaces/svg/krita"
    xmlns:sodipodi="http://sodipodi.sourceforge.net/DTD/sodipodi-0.dtd"
    width="464.16pt"
    height="445.2pt"
    viewBox="0 0 464.16 445.2">
<defs>
  <linearGradient id="gradient0" gradientUnits="objectBoundingBox" x1="0" y1="0" x2="1" y2="1" spreadMethod="pad">
   <stop stop-color="#004320" offset="0" stop-opacity="1"/>
   <stop stop-color="#297f00" offset="0.849785387516022" stop-opacity="1"/>
   <stop stop-color="#00ff00" offset="1" stop-opacity="1"/>
  </linearGradient>
  <linearGradient id="gradient1" gradientUnits="objectBoundingBox" x1="0" y1="0" x2="1" y2="1" spreadMethod="pad">
   <stop stop-color="#004320" offset="0" stop-opacity="1"/>
   <stop stop-color="#297f00" offset="0.862660944461823" stop-opacity="1"/>
   <stop stop-color="#00ff00" offset="1" stop-opacity="1"/>
  </linearGradient>
  <linearGradient id="gradient2" gradientUnits="objectBoundingBox" x1="0" y1="0" x2="1.4142135623731" y2="0" spreadMethod="pad">
   <stop stop-color="#004320" offset="0" stop-opacity="1"/>
   <stop stop-color="#297f00" offset="0.755364835262299" stop-opacity="1"/>
   <stop stop-color="#00ff00" offset="0.90128755569458" stop-opacity="1"/>
  </linearGradient>
  <radialGradient id="gradient3" gradientUnits="objectBoundingBox" cx="0" cy="0" fx="0" fy="0" r="1.4142135623731" spreadMethod="pad">
   <stop stop-color="#dd774a" offset="0" stop-opacity="1"/>
   <stop stop-color="#ff600a" offset="0.875536501407623" stop-opacity="1"/>
   <stop stop-color="#ff3c0a" offset="0.978540778160095" stop-opacity="1"/>
  </radialGradient>
  <linearGradient id="gradient4" gradientUnits="objectBoundingBox" x1="0" y1="0" x2="1" y2="1" spreadMethod="pad">
   <stop stop-color="#ffdb18" offset="0" stop-opacity="1"/>
   <stop stop-color="#ffb30b" offset="1" stop-opacity="1"/>
  </linearGradient>
  <radialGradient id="gradient5" gradientUnits="objectBoundingBox" cx="0" cy="0" fx="0" fy="0" r="1.4142135623731" spreadMethod="pad">
   <stop stop-color="#d3cdca" offset="0" stop-opacity="1"/>
   <stop stop-color="#ffffff" offset="0.875536501407623" stop-opacity="1"/>
   <stop stop-color="#929292" offset="0.978540778160095" stop-opacity="1"/>
  </radialGradient>
 </defs>
<rect id="shape0" transform="translate(0.960000000000008, -0.960000000000008)" fill="#22c781" fill-rule="evenodd" width="459.6" height="448.08"/><path id="shape01" transform="matrix(-1 0 0 1 341.57869696726 299.482695544418)" fill="url(#gradient0)" fill-rule="evenodd" stroke="#000000" stroke-width="4.08" stroke-linecap="square" stroke-linejoin="bevel" d="M0 0C15.1703 57.1847 50.0503 86.9447 104.64 89.28L93.12 57.6C90.6226 28.7082 59.5826 9.50817 0 0" sodipodi:nodetypes="cccc"/><path id="shape1" transform="translate(116.879998673343, 299.519996431292)" fill="url(#gradient1)" fill-rule="evenodd" stroke="#000000" stroke-width="4.08" stroke-linecap="square" stroke-linejoin="bevel" d="M0 0C15.1703 57.1847 50.0503 86.9447 104.64 89.28L93.12 57.6C90.6226 28.7082 59.5826 9.50817 0 0" sodipodi:nodetypes="cccc"/><ellipse id="shape2" transform="matrix(0.999980279912433 -0.00628011037011424 0.00628011037011424 0.999980279912433 200.741086488997 204.179797913849)" rx="28.3199998043181" ry="98.639997864082" cx="28.3199998043181" cy="98.639997864082" fill="url(#gradient2)" fill-rule="evenodd" stroke="#000000" stroke-width="4.08" stroke-linecap="square" stroke-linejoin="bevel"/><ellipse id="shape3" transform="translate(44.39999561218, 17.039991409388)" rx="181.079993352188" ry="129.959995228906" cx="181.079993352188" cy="129.959995228906" fill="url(#gradient3)" fill-rule="evenodd" stroke="#000000" stroke-width="4.08" stroke-linecap="square" stroke-linejoin="bevel"/><ellipse id="shape4" transform="matrix(0.999786542981486 -0.0206607955589646 0.0206607955589646 0.999786542981486 92.939126316351 57.244088690988)" rx="132.840003145485" ry="91.4399966430533" cx="132.840003145485" cy="91.4399966430533" fill="url(#gradient4)" fill-rule="evenodd" stroke="#000000" stroke-width="4.08" stroke-linecap="square" stroke-linejoin="bevel"/><ellipse id="shape5" transform="matrix(0.999360060788042 -0.0357696645458433 0.0357696645458433 0.999360060788042 118.50709876893 88.469364798508)" rx="103.68000359484" ry="63.7199976607104" cx="103.68000359484" cy="63.7199976607104" fill="url(#gradient5)" fill-rule="evenodd" stroke="#000000" stroke-width="4.08" stroke-linecap="square" stroke-linejoin="bevel"/><ellipse id="shape6" transform="translate(186.239998194083, 116.399997696585)" rx="10.7999999253753" ry="25.1999998258758" cx="10.7999999253753" cy="25.1999998258758" fill="#000000" fill-rule="evenodd" stroke-opacity="0" stroke="#000000" stroke-width="0" stroke-linecap="square" stroke-linejoin="bevel"/><ellipse id="shape011" transform="translate(230.699997886878, 116.219997697829)" rx="10.7999999253753" ry="25.1999998258758" cx="10.7999999253753" cy="25.1999998258758" fill="#000000" fill-rule="evenodd" stroke-opacity="0" stroke="#000000" stroke-width="0" stroke-linecap="square" stroke-linejoin="bevel"/><path id="shape7" transform="translate(190.251702825222, 120.068466127032)" fill="#ffffff" fill-opacity="0.52156862745098" fill-rule="evenodd" stroke-opacity="0" stroke="#000000" stroke-width="0" stroke-linecap="square" stroke-linejoin="bevel" d="M0.128295 10.3715C-0.400959 6.37098 0.543885 1.88832 6.0683 0.0215316C12.8939 -0.380725 13.4265 4.94411 13.5833 8.39153C11.4716 7.8655 10.6068 6.36172 6.5633 6.68153C2.89935 7.25978 2.17733 9.36221 0.128295 10.3715" sodipodi:nodetypes="ccccc"/><path id="shape8" transform="translate(137.039998534047, 318.719996298634)" fill="none" stroke="#000000" stroke-width="4.0488" stroke-linecap="square" stroke-linejoin="bevel" d="M0 0C14.2137 2.1882 59.52 36.2926 59.52 46.56" sodipodi:nodetypes="cc"/><path id="shape02" transform="matrix(-1 0 0 1 324.101843164102 315.845841820864)" fill="none" stroke="#000000" stroke-width="4.0488" stroke-linecap="square" stroke-linejoin="bevel" d="M0 0C14.2137 2.1882 59.52 36.2926 59.52 46.56" sodipodi:nodetypes="cc"/><path id="shape03" transform="translate(234.950996627978, 119.111997785008)" fill="#ffffff" fill-opacity="0.733333333333333" fill-rule="evenodd" stroke-opacity="0" stroke="#000000" stroke-width="0" stroke-linecap="square" stroke-linejoin="bevel" d="M0 10.26C0.897579 6.47896 1.12159 2.40925 5.22 0C12.0475 0.971127 11.4245 5.12842 13.455 8.28C11.3433 7.75397 10.3285 6.43019 6.435 7.2C2.47105 7.35825 2.04904 9.25068 0 10.26" sodipodi:nodetypes="ccccc"/><path id="shape04" transform="matrix(-0.991288229409358 -0.131710463648434 0.131710463648434 -0.991288229409358 247.212713722336 165.475386337134)" fill="#ffffff" fill-opacity="0.733333333333333" fill-rule="evenodd" stroke-opacity="0" stroke="#000000" stroke-width="0" stroke-linecap="square" stroke-linejoin="bevel" d="M0 10.26C0.897579 6.47896 1.12159 2.40925 5.22 0C12.0475 0.971127 11.4245 5.12842 13.455 8.28C11.3433 7.75397 10.3285 6.43019 6.435 7.2C2.47105 7.35825 2.04904 9.25068 0 10.26" sodipodi:nodetypes="ccccc"/><path id="shape05" transform="matrix(-0.999994523558924 0.00330950935345145 -0.00330950935345145 -0.999994523558924 203.404940920524 164.593702895435)" fill="#ffffff" fill-opacity="0.733333333333333" fill-rule="evenodd" stroke-opacity="0" stroke="#000000" stroke-width="0" stroke-linecap="square" stroke-linejoin="bevel" d="M0 10.26C0.897579 6.47896 1.12159 2.40925 5.22 0C12.0475 0.971127 11.4245 5.12842 13.455 8.28C11.3433 7.75397 10.3285 6.43019 6.435 7.2C2.47105 7.35825 2.04904 9.25068 0 10.26" sodipodi:nodetypes="ccccc"/><path id="shape9" transform="matrix(0.984666878549143 0.174445230053132 -0.335238216332373 0.956180524337923 75.7662106890757 73.5421669885936)" fill="#ffffff" fill-opacity="0.619607843137255" fill-rule="evenodd" stroke-opacity="0" stroke="#000000" stroke-width="0" stroke-linecap="square" stroke-linejoin="bevel" d="M24.909 1.8C9.54294 13.9115 0.369106 24.4952 0.069029 51.48C-1.36982 78.6978 19.9892 96.9363 35.709 102.6C25.6576 66.24 15.415 36.36 27.429 0" sodipodi:nodetypes="cccc"/><path id="shape06" transform="matrix(-0.814204824092469 -0.58057773331792 0.591426695196506 -0.806468852123332 348.923010689017 240.306296077192)" fill="#ffffff" fill-opacity="0.619607843137255" fill-rule="evenodd" stroke-opacity="0" stroke="#000000" stroke-width="0" stroke-linecap="square" stroke-linejoin="bevel" d="M24.909 1.8C9.54294 13.9115 0.369106 24.4952 0.069029 51.48C-1.36982 78.6978 19.9892 96.9363 35.709 102.6C25.6576 66.24 15.415 36.36 27.429 0" sodipodi:nodetypes="cccc"/><path id="shape07" transform="matrix(-0.946587354924746 -0.322447483315644 0.335060390810725 -0.942290867909663 334.21650217984 198.335266274614)" fill="#ffffff" fill-opacity="0.619607843137255" fill-rule="evenodd" stroke-opacity="0" stroke="#000000" stroke-width="0" stroke-linecap="square" stroke-linejoin="bevel" d="M14.0805 1.30934C5.39441 10.1194 0.208647 17.8181 0.0390206 37.4472C-0.774328 57.2458 11.2994 70.5127 20.1855 74.6325C14.5037 48.1838 8.71375 26.4487 15.505 0" sodipodi:nodetypes="cccc"/><path id="shape08" transform="matrix(0.950184578742391 0.311687770565641 -0.324348609665782 0.946031460705233 117.405002439171 93.0250858657222)" fill="#ffffff" fill-opacity="0.619607843137255" fill-rule="evenodd" stroke-opacity="0" stroke="#000000" stroke-width="0" stroke-linecap="square" stroke-linejoin="bevel" d="M11.5804 1.30934C4.43659 10.1194 0.1716 17.8181 0.0320922 37.4472C-0.636841 57.2458 9.29314 70.5127 16.6014 74.6325C11.9284 48.1838 7.16656 26.4487 12.752 0" sodipodi:nodetypes="cccc"/>
</svg>
