<?xml version="1.0" encoding="UTF-8"?>
<svg version="1.1" xmlns="http://www.w3.org/2000/svg" width="136" height="156">
<path d="M0 0 C44.88 0 89.76 0 136 0 C136 51.48 136 102.96 136 156 C91.12 156 46.24 156 0 156 C0 104.52 0 53.04 0 0 Z " fill="#F2F3EF" transform="translate(0,0)"/>
<path d="M0 0 C0.66 0 1.32 0 2 0 C6.63106796 17.73786408 6.63106796 17.73786408 5 21 C4.45077242 26.96756893 4.62744801 30.94117201 8 36 C8.1875 39.3125 8.1875 39.3125 8 42 C10.31 42 12.62 42 15 42 C14.67 43.65 14.34 45.3 14 47 C11.69 47 9.38 47 7 47 C7.28232721 49.10544013 7.5761898 51.20933589 7.875 53.3125 C8.03742188 54.48425781 8.19984375 55.65601563 8.3671875 56.86328125 C8.82300621 60.14530895 8.82300621 60.14530895 11 63 C11 64.32 11 65.64 11 67 C11.66 67 12.32 67 13 67 C16.51886736 72.9820745 17.62194581 78.12067037 18.5 84.98046875 C18.88695399 88.14862386 18.88695399 88.14862386 20.5625 91.375 C22.1186709 95.29925704 22.16071931 97.99130737 22.25 102.1875 C22.48968133 107.88968597 23.29002653 111.08721716 26.5625 115.75 C31.78835226 123.51412336 30.59070027 132.03635775 30 141 C28.56260487 141.02712066 27.12506137 141.04645067 25.6875 141.0625 C24.88699219 141.07410156 24.08648437 141.08570313 23.26171875 141.09765625 C21 141 21 141 18 140 C17.05078125 136.83984375 17.05078125 136.83984375 16.3125 132.9375 C16.06113281 131.64714844 15.80976562 130.35679687 15.55078125 129.02734375 C15.36902344 128.02832031 15.18726562 127.02929688 15 126 C14.34 126 13.68 126 13 126 C12.4121875 124.6696875 12.4121875 124.6696875 11.8125 123.3125 C8.8079637 117.82145089 5.42058731 114.51015708 -0.62109375 112.50390625 C-6.65799391 111.225154 -12.67969511 111.17131968 -18.5 113.25 C-22.16777697 115.81744388 -24.56506505 117.69519514 -26 122 C-25.34 122 -24.68 122 -24 122 C-23.34 123.65 -22.68 125.3 -22 127 C-22.66 127.66 -23.32 128.32 -24 129 C-23.236875 129.350625 -22.47375 129.70125 -21.6875 130.0625 C-18.16683963 132.6006505 -17.29325383 134.9046962 -16 139 C-16.4296875 141.22265625 -16.4296875 141.22265625 -17 143 C-29.30573362 144.93031116 -41.89379512 146.87398556 -54 143 C-54 140.36 -54 137.72 -54 135 C-54.98919434 135.01047363 -55.97838867 135.02094727 -56.99755859 135.03173828 C-60.66142164 135.06789019 -64.32526886 135.09088282 -67.98925781 135.10986328 C-69.57619883 135.11993188 -71.16312125 135.13358767 -72.75 135.15087891 C-75.02869247 135.17509001 -77.30714006 135.18647422 -79.5859375 135.1953125 C-80.29744965 135.20563507 -81.00896179 135.21595764 -81.74203491 135.22659302 C-83.49631665 135.22699422 -85.24996709 135.12202209 -87 135 C-89 133 -89 133 -89.1171875 131.1875 C-88.22782801 123.15457555 -85.9411982 114.77616492 -80 109 C-79.37609375 108.70996094 -78.7521875 108.41992188 -78.109375 108.12109375 C-75.61764852 106.94444514 -73.94802323 105.97631403 -72 104 C-70.90129479 100.83673434 -70.13246539 97.78418422 -69.4440918 94.51782227 C-68.58542569 90.6426331 -67.86757405 88.16256302 -64.8125 85.5625 C-61.8000928 82.81786233 -61.65163079 82.56388339 -61.375 78.8125 C-61 75 -61 75 -58.9375 73 C-58.298125 72.67 -57.65875 72.34 -57 72 C-56.67 73.98 -56.34 75.96 -56 78 C-53.87434778 77.35631658 -51.74949654 76.70998756 -49.625 76.0625 C-48.44164062 75.70285156 -47.25828125 75.34320313 -46.0390625 74.97265625 C-43.12073182 74.12423726 -43.12073182 74.12423726 -41 73 C-40.0416631 70.65062258 -39.18214554 68.33781945 -38.375 65.9375 C-38.14554688 65.27427734 -37.91609375 64.61105469 -37.6796875 63.92773438 C-37.11324224 62.28740331 -36.55577077 60.64397843 -36 59 C-39.465 59.495 -39.465 59.495 -43 60 C-43.45572917 57.98177083 -43.91145833 55.96354167 -44.3671875 53.9453125 C-44.90474428 51.79280036 -44.90474428 51.79280036 -47 50 C-47.70158503 46.89564145 -47.66250602 44.10908339 -47 41 C-44.58694104 37.24462849 -41.64713254 35.35859199 -37.30859375 34.4140625 C-34.85884802 34.15619453 -32.46227297 34.00990854 -30 34 C-29.63194333 29.0598452 -29.63194333 29.0598452 -31.5 24.625 C-33.646554 20.8685305 -33.45625358 17.24666792 -33 13 C-32.67 12.67 -32.34 12.34 -32 12 C-31.92773498 10.14712498 -31.9161878 8.29166122 -31.9375 6.4375 C-31.94652344 5.42558594 -31.95554688 4.41367188 -31.96484375 3.37109375 C-31.97644531 2.58863281 -31.98804688 1.80617188 -32 1 C-27.6538177 1.88396928 -25.87384059 3.5513913 -23 7 C-21.4726628 9.95087478 -20.24486603 12.91088801 -19 16 C-14.38 16 -9.76 16 -5 16 C-3.35 10.72 -1.7 5.44 0 0 Z " fill="#1F282C" transform="translate(106,5)"/>
<path d="M0 0 C0.66 0 1.32 0 2 0 C6.63106796 17.73786408 6.63106796 17.73786408 5 21 C4.45077242 26.96756893 4.62744801 30.94117201 8 36 C8.1875 39.3125 8.1875 39.3125 8 42 C10.31 42 12.62 42 15 42 C14.67 43.65 14.34 45.3 14 47 C11.69 47 9.38 47 7 47 C6.979375 48.134375 6.95875 49.26875 6.9375 50.4375 C6.25408361 56.07568521 2.93509679 60.07305041 -1 64 C-5.15611071 66.64328641 -9.22045172 66.44223578 -14 66 C-17.0625 65 -17.0625 65 -19 64 C-19 64.66 -19 65.32 -19 66 C-13.80236605 67.80326076 -10.50964696 68.10192939 -5 67 C-3.865625 66.814375 -2.73125 66.62875 -1.5625 66.4375 C-0.2940625 66.2209375 -0.2940625 66.2209375 1 66 C-0.07401108 68.91517292 -0.77810176 70.77810176 -3 73 C-5.3828125 73.4140625 -5.3828125 73.4140625 -8.125 73.625 C-9.49011719 73.73714844 -9.49011719 73.73714844 -10.8828125 73.8515625 C-11.58148438 73.90054688 -12.28015625 73.94953125 -13 74 C-10.36 74 -7.72 74 -5 74 C-6.15173355 76.46800047 -7.04783565 78.04783565 -9 80 C-13.74588678 79.86816981 -16.82300413 77.29014915 -20 74 C-21.48357656 72.05537349 -22.7311283 70.09851858 -24 68 C-23.01 68 -22.02 68 -21 68 C-21.94875 67.2575 -22.8975 66.515 -23.875 65.75 C-26.32128929 63.69604013 -28.02408746 62.12292014 -29 59 C-29.125 56.25 -29.125 56.25 -29 54 C-26 55 -26 55 -24.625 57.5 C-23.26004263 60.16197635 -23.26004263 60.16197635 -20.8125 60.75 C-19.884375 60.8325 -18.95625 60.915 -18 61 C-16.56210092 61.18441457 -15.12461474 61.3720696 -13.6875 61.5625 C-12.470625 61.706875 -11.25375 61.85125 -10 62 C-11.051875 61.608125 -12.10375 61.21625 -13.1875 60.8125 C-16.92022533 59.21926358 -19.36048309 57.11942908 -22 54 C-22 53.34 -22 52.68 -22 52 C-18.125 52.875 -18.125 52.875 -17 54 C-17.33 52.68 -17.66 51.36 -18 50 C-20.31 50 -22.62 50 -25 50 C-24.67 49.01 -24.34 48.02 -24 47 C-22.68 47 -21.36 47 -20 47 C-20.33 46.01 -20.66 45.02 -21 44 C-22.65 44 -24.3 44 -26 44 C-26 42.35 -26 40.7 -26 39 C-26.99 39 -27.98 39 -29 39 C-28.34 39.99 -27.68 40.98 -27 42 C-26.5625 45.375 -26.5625 45.375 -27 49 C-29.86808886 52.68754281 -32.55568412 54.60321501 -37 56 C-36.67 56.99 -36.34 57.98 -36 59 C-39.465 59.495 -39.465 59.495 -43 60 C-43.45572917 57.98177083 -43.91145833 55.96354167 -44.3671875 53.9453125 C-44.90474428 51.79280036 -44.90474428 51.79280036 -47 50 C-47.70158503 46.89564145 -47.66250602 44.10908339 -47 41 C-44.58694104 37.24462849 -41.64713254 35.35859199 -37.30859375 34.4140625 C-34.85884802 34.15619453 -32.46227297 34.00990854 -30 34 C-29.63194333 29.0598452 -29.63194333 29.0598452 -31.5 24.625 C-33.646554 20.8685305 -33.45625358 17.24666792 -33 13 C-32.67 12.67 -32.34 12.34 -32 12 C-31.92773498 10.14712498 -31.9161878 8.29166122 -31.9375 6.4375 C-31.94652344 5.42558594 -31.95554687 4.41367188 -31.96484375 3.37109375 C-31.97644531 2.58863281 -31.98804687 1.80617188 -32 1 C-27.6538177 1.88396928 -25.87384059 3.5513913 -23 7 C-21.4726628 9.95087478 -20.24486603 12.91088801 -19 16 C-14.38 16 -9.76 16 -5 16 C-3.35 10.72 -1.7 5.44 0 0 Z " fill="#2E221E" transform="translate(106,5)"/>
<path d="M0 0 C4.72197482 2.40407112 8.34234863 6.04473082 11.1875 10.5 C11.1875 11.49 11.1875 12.48 11.1875 13.5 C11.8475 13.5 12.5075 13.5 13.1875 13.5 C15.22743514 18.42984325 16.59402968 22.07960425 16.1875 27.5 C19.4875 27.83 22.7875 28.16 26.1875 28.5 C21.60134361 30.79307819 18.09586198 31.17744709 13.0625 31.625 C12.1348584 31.70991699 11.2072168 31.79483398 10.25146484 31.88232422 C-4.3907633 33.04797973 -19.13699304 32.66803029 -33.8125 32.5 C-33.8125 32.17 -33.8125 31.84 -33.8125 31.5 C-28.8625 30.84 -23.9125 30.18 -18.8125 29.5 C-19.5119967 23.16141391 -19.5119967 23.16141391 -23.3125 18.5625 C-24.1375 18.211875 -24.9625 17.86125 -25.8125 17.5 C-26.4725 16.84 -27.1325 16.18 -27.8125 15.5 C-26.8225 15.17 -25.8325 14.84 -24.8125 14.5 C-25.1425 12.85 -25.4725 11.2 -25.8125 9.5 C-26.4725 9.5 -27.1325 9.5 -27.8125 9.5 C-27.24986042 5.99490749 -26.16064818 4.54731992 -23.4375 2.3125 C-22.83164063 1.80332031 -22.22578125 1.29414062 -21.6015625 0.76953125 C-15.77351125 -3.36609464 -6.37332002 -2.49009233 0 0 Z " fill="#ECEDE9" transform="translate(107.8125,117.5)"/>
<path d="M0 0 C0.68835937 0.61488281 0.68835937 0.61488281 1.390625 1.2421875 C2.31101562 2.05042969 2.31101562 2.05042969 3.25 2.875 C3.85328125 3.40867187 4.4565625 3.94234375 5.078125 4.4921875 C6.97418746 5.9797487 8.81290005 7.00322436 11 8 C7.71023192 9.09658936 6.28696233 8.79953138 3 8 C3.495 10.97 3.495 10.97 4 14 C3.34 14 2.68 14 2 14 C2.45341868 15.27259511 2.91295227 16.54301243 3.375 17.8125 C3.63023438 18.52019531 3.88546875 19.22789063 4.1484375 19.95703125 C5.0265769 22.24773359 5.0265769 22.24773359 7 25 C6.68372903 28.54223486 6.12451909 31.62644274 5 35 C4.96045766 37.33299825 4.95598268 39.66708189 5 42 C7.97 42.99 10.94 43.98 14 45 C14 45.33 14 45.66 14 46 C8.21101581 46.20674944 3.57067277 45.59162079 -2 44 C-2 41.36 -2 38.72 -2 36 C-2.98919434 36.01047363 -3.97838867 36.02094727 -4.99755859 36.03173828 C-8.66142164 36.06789019 -12.32526886 36.09088282 -15.98925781 36.10986328 C-17.57619883 36.11993188 -19.16312125 36.13358767 -20.75 36.15087891 C-23.02869247 36.17509001 -25.30714006 36.18647422 -27.5859375 36.1953125 C-28.29744965 36.20563507 -29.00896179 36.21595764 -29.74203491 36.22659302 C-31.49631665 36.22699422 -33.24996709 36.12202209 -35 36 C-37 34 -37 34 -37.1171875 32.1875 C-36.37773722 25.50859427 -34.89285612 17.89285612 -30 13 C-30 14.32 -30 15.64 -30 17 C-27.28753105 16.26298171 -24.58074863 15.5109918 -21.875 14.75 C-20.73417969 14.44255859 -20.73417969 14.44255859 -19.5703125 14.12890625 C-12.72546293 12.18166456 -7.73946028 9.28735233 -3.125 3.75 C-2.52945313 3.04359375 -1.93390625 2.3371875 -1.3203125 1.609375 C-0.88460937 1.07828125 -0.44890625 0.5471875 0 0 Z " fill="#35211A" transform="translate(54,104)"/>
<path d="M0 0 C0.33 0.99 0.66 1.98 1 3 C0.67 3.66 0.34 4.32 0 5 C-0.07092842 7.2072923 -0.08415025 9.41667452 -0.0625 11.625 C-0.05347656 12.81351563 -0.04445313 14.00203125 -0.03515625 15.2265625 C-0.02355469 16.14179687 -0.01195313 17.05703125 0 18 C1.32 18 2.64 18 4 18 C3.67 21.3 3.34 24.6 3 28 C3.99 28 4.98 28 6 28 C6 28.66 6 29.32 6 30 C-0.75 31.125 -0.75 31.125 -3 30 C-3.0825 31.051875 -3.165 32.10375 -3.25 33.1875 C-3.86851804 38.34797141 -5.52362687 43.13146292 -7.16015625 48.046875 C-8.1823631 51.12953528 -8.1823631 51.12953528 -8 55 C-4.04 55.66 -0.08 56.32 4 57 C4 55.68 4 54.36 4 53 C4.66 53 5.32 53 6 53 C6.33 53.99 6.66 54.98 7 56 C8.98 56.33 10.96 56.66 13 57 C12.67 54.69 12.34 52.38 12 50 C13.485 50.495 13.485 50.495 15 51 C15 52.32 15 53.64 15 55 C15.99 55 16.98 55 18 55 C17.17217616 51.89566062 16.52492716 49.56381066 14.3125 47.1875 C11.25883843 45.61940352 8.39328698 45.32627759 5 45 C5.84617281 37.36217699 9.99483602 31.5953689 15.75 26.625 C16.4925 26.08875 17.235 25.5525 18 25 C20.62493393 22.02812967 21.52254467 19.63743115 22.1875 15.75 C22.34605469 14.85796875 22.50460938 13.9659375 22.66796875 13.046875 C22.77753906 12.37140625 22.88710937 11.6959375 23 11 C23.66 11 24.32 11 25 11 C25.08159574 15.16138263 24.98248524 18.9472484 24 23 C28.92762146 20.18934213 32.66112896 17.69915184 36 13 C36.98230498 11.9826127 37.97469597 10.97403883 39 10 C39.495 10.99 39.495 10.99 40 12 C39.22265625 14.1640625 39.22265625 14.1640625 38.0625 16.625 C37.49208984 17.85089844 37.49208984 17.85089844 36.91015625 19.1015625 C36.60980469 19.72804688 36.30945313 20.35453125 36 21 C37.29585916 20.57507874 38.5866044 20.13454118 39.875 19.6875 C40.59429687 19.44386719 41.31359375 19.20023438 42.0546875 18.94921875 C44.33994905 18.03664453 44.33994905 18.03664453 46 15 C46.66 15 47.32 15 48 15 C47.56457918 17.93909054 46.87512298 19.15136608 44.9375 21.5 C42.59161889 23.99979416 42.59161889 23.99979416 43 28 C44.093125 28.639375 45.18625 29.27875 46.3125 29.9375 C46.92738281 30.29714844 47.54226562 30.65679687 48.17578125 31.02734375 C50.13819555 32.13901247 50.13819555 32.13901247 53 33 C53 33.66 53 34.32 53 35 C52.34 35 51.68 35 51 35 C51.34933594 35.6290625 51.69867188 36.258125 52.05859375 36.90625 C54.98441785 42.40978315 56.65382411 46.76883393 57 53 C60.3 53.33 63.6 53.66 67 54 C67 54.66 67 55.32 67 56 C65.56260487 56.02712066 64.12506137 56.04645067 62.6875 56.0625 C61.88699219 56.07410156 61.08648437 56.08570313 60.26171875 56.09765625 C58 56 58 56 55 55 C54.05078125 51.83984375 54.05078125 51.83984375 53.3125 47.9375 C53.06113281 46.64714844 52.80976562 45.35679687 52.55078125 44.02734375 C52.36902344 43.02832031 52.18726562 42.02929688 52 41 C51.34 41 50.68 41 50 41 C49.608125 40.113125 49.21625 39.22625 48.8125 38.3125 C45.8079637 32.82145089 42.42058731 29.51015708 36.37890625 27.50390625 C30.34200609 26.225154 24.32030489 26.17131968 18.5 28.25 C14.83222303 30.81744388 12.43493495 32.69519514 11 37 C11.66 37 12.32 37 13 37 C13.66 38.65 14.32 40.3 15 42 C14.34 42.66 13.68 43.32 13 44 C13.763125 44.350625 14.52625 44.70125 15.3125 45.0625 C18.83316037 47.6006505 19.70674617 49.9046962 21 54 C20.5703125 56.22265625 20.5703125 56.22265625 20 58 C0.28709826 61.21897586 0.28709826 61.21897586 -9.1875 57.875 C-11 56 -11 56 -11.4375 52.6875 C-11 49 -11 49 -9.9375 45.9375 C-8.8189696 42.4327714 -9.0247171 40.52602279 -10 37 C-10.99414593 35.32983484 -11.9935725 33.66279327 -13 32 C-13 30.68 -13 29.36 -13 28 C-12.34 28 -11.68 28 -11 28 C-11.33 26.02 -11.66 24.04 -12 22 C-9.69 22 -7.38 22 -5 22 C-6.98 21.01 -8.96 20.02 -11 19 C-11 18.34 -11 17.68 -11 17 C-11.66 17 -12.32 17 -13 17 C-13.66 13.37 -14.32 9.74 -15 6 C-14.34 6 -13.68 6 -13 6 C-11.27735506 9.29549466 -9.70554068 12.33118845 -9 16 C-7.35 16.33 -5.7 16.66 -4 17 C-4.01160156 16.24074219 -4.02320312 15.48148438 -4.03515625 14.69921875 C-4.04417969 13.70535156 -4.05320312 12.71148437 -4.0625 11.6875 C-4.07410156 10.70136719 -4.08570312 9.71523437 -4.09765625 8.69921875 C-4 6 -4 6 -3 3 C-2.34 3 -1.68 3 -1 3 C-0.67 2.01 -0.34 1.02 0 0 Z " fill="#151010" transform="translate(69,90)"/>
<path d="M0 0 C4.3461823 0.88396928 6.12615941 2.5513913 9 6 C10.5273372 8.95087478 11.75513397 11.91088801 13 15 C17.62 15 22.24 15 27 15 C27.66 13.68 28.32 12.36 29 11 C29.99 11 30.98 11 32 11 C32 12.98 32 14.96 32 17 C31.01 17 30.02 17 29 17 C29.66 17.598125 30.32 18.19625 31 18.8125 C33 21 33 21 33 24 C32.01 24.66 31.02 25.32 30 26 C30.33 26.66 30.66 27.32 31 28 C30.34 28 29.68 28 29 28 C29 28.99 29 29.98 29 31 C28.01 31.33 27.02 31.66 26 32 C25.67 32.66 25.34 33.32 25 34 C25.969375 33.979375 26.93875 33.95875 27.9375 33.9375 C31 34 31 34 32 35 C32.1875 37.4375 32.1875 37.4375 32 40 C30 42 30 42 28.046875 42.15234375 C21.99238276 41.5860222 19.37776927 40.17877976 15 36 C11.16202248 33.2174663 8.73272903 32.6698096 4 33 C3.731875 31.948125 3.46375 30.89625 3.1875 29.8125 C2.23318108 26.0913433 2.23318108 26.0913433 0.375 23.625 C-1.60185759 19.85099914 -1.45026857 16.19096128 -1 12 C-0.67 11.67 -0.34 11.34 0 11 C0.07226502 9.14712498 0.0838122 7.29166122 0.0625 5.4375 C0.05347656 4.42558594 0.04445313 3.41367188 0.03515625 2.37109375 C0.02355469 1.58863281 0.01195313 0.80617188 0 0 Z " fill="#1F2A2C" transform="translate(74,6)"/>
<path d="M0 0 C0.33 0 0.66 0 1 0 C1.33 1.65 1.66 3.3 2 5 C2.99 5.04125 3.98 5.0825 5 5.125 C10.01985298 5.82615355 13.20792623 8.85051614 17 12 C17.99 12.70125 18.98 13.4025 20 14.125 C20.66 14.74375 21.32 15.3625 22 16 C22 17.32 22 18.64 22 20 C19.48203847 21.58538318 18.32134414 22.0373656 15.3125 21.6875 C13 21 13 21 12 20 C11.95907063 17.66702567 11.95758277 15.33294775 12 13 C11.01 13 10.02 13 9 13 C9.33 14.65 9.66 16.3 10 18 C9.401875 17.67 8.80375 17.34 8.1875 17 C5.94613529 15.79212012 5.94613529 15.79212012 3 16 C3 14.35 3 12.7 3 11 C2.01 11 1.02 11 0 11 C0.99 12.485 0.99 12.485 2 14 C2.4375 17.375 2.4375 17.375 2 21 C-0.86808886 24.68754281 -3.55568412 26.60321501 -8 28 C-7.67 28.99 -7.34 29.98 -7 31 C-9.31 31.33 -11.62 31.66 -14 32 C-14.68359375 28.97265625 -14.68359375 28.97265625 -15.3671875 25.9453125 C-15.90474428 23.79280036 -15.90474428 23.79280036 -18 22 C-18.70158503 18.89564145 -18.66250602 16.10908339 -18 13 C-15.58694104 9.24462849 -12.64713254 7.35859199 -8.30859375 6.4140625 C-5.85884802 6.15619453 -3.46227297 6.00990854 -1 6 C-0.67 4.02 -0.34 2.04 0 0 Z " fill="#282F30" transform="translate(77,33)"/>
<path d="M0 0 C0.66 0.33 1.32 0.66 2 1 C-0.76313315 4.29487011 -3.46954045 7.50743042 -6.625 10.4375 C-10.28930631 14.39109365 -12.30608391 18.91825174 -14 24 C-12.96875 23.896875 -11.9375 23.79375 -10.875 23.6875 C-5.74472041 24.10123222 -4.42956453 25.23584381 -1 29 C-0.625 31.8125 -0.625 31.8125 -1 34 C-1.99 34 -2.98 34 -4 34 C-4.12375 33.360625 -4.2475 32.72125 -4.375 32.0625 C-4.58125 31.381875 -4.7875 30.70125 -5 30 C-5.66 29.67 -6.32 29.34 -7 29 C-6.67 31.31 -6.34 33.62 -6 36 C-7.98 36 -9.96 36 -12 36 C-12.33 34.68 -12.66 33.36 -13 32 C-13.66 32 -14.32 32 -15 32 C-15 33.32 -15 34.64 -15 36 C-18.96 35.67 -22.92 35.34 -27 35 C-28.0242847 29.87857652 -27.79191571 28.42137676 -26.1875 23.6875 C-24.58704365 18.81413811 -23.17442304 13.99129792 -22 9 C-21.05125 9.0825 -20.1025 9.165 -19.125 9.25 C-12.82478683 9.23719469 -6.34738696 6.70968131 -1.875 2.25 C-1.25625 1.5075 -0.6375 0.765 0 0 Z " fill="#914927" transform="translate(88,111)"/>
<path d="M0 0 C2.375 2.0625 2.375 2.0625 4 4 C6.97549244 4.99954145 9.86219864 5.18314262 12.984375 5.31640625 C14.38623047 5.37924805 14.38623047 5.37924805 15.81640625 5.44335938 C16.78449219 5.48267578 17.75257812 5.52199219 18.75 5.5625 C19.73355469 5.60568359 20.71710938 5.64886719 21.73046875 5.69335938 C24.15351275 5.79922052 26.5766554 5.90130171 29 6 C29.33 5.01 29.66 4.02 30 3 C31.35439668 5.70879335 31.06501451 8.00933268 31 11 C34.3 11.33 37.6 11.66 41 12 C36.41384361 14.29307819 32.90836198 14.67744709 27.875 15.125 C26.9473584 15.20991699 26.0197168 15.29483398 25.06396484 15.38232422 C10.4217367 16.54797973 -4.32449304 16.16803029 -19 16 C-19 15.67 -19 15.34 -19 15 C-14.05 14.34 -9.1 13.68 -4 13 C-4.6994967 6.66141391 -4.6994967 6.66141391 -8.5 2.0625 C-9.7375 1.5365625 -9.7375 1.5365625 -11 1 C-11.66 0.34 -12.32 -0.32 -13 -1 C-8.47519951 -2.50826683 -4.48982889 -1.40538301 0 0 Z " fill="#86898A" transform="translate(93,134)"/>
<path d="M0 0 C0.66 0 1.32 0 2 0 C2.185625 0.886875 2.37125 1.77375 2.5625 2.6875 C3.7392659 6.24283915 3.7392659 6.24283915 7.125 8 C12.89784751 11.79184931 16.73182073 18.55949096 19 25 C19.58785592 29.43854008 19.53092835 33.56084905 19 38 C15.7 37.67 12.4 37.34 9 37 C8.73445313 36.11957031 8.46890625 35.23914063 8.1953125 34.33203125 C7.84210938 33.17058594 7.48890625 32.00914062 7.125 30.8125 C6.77695313 29.66394531 6.42890625 28.51539063 6.0703125 27.33203125 C5.15781129 24.49128843 4.15019636 21.75114535 3 19 C3.66 19 4.32 19 5 19 C5 18.34 5 17.68 5 17 C4.113125 16.9175 3.22625 16.835 2.3125 16.75 C-1.41255464 15.9065914 -3.20928838 14.54447236 -6 12 C-5.55946315 7.15409462 -3.25494123 3.51858133 0 0 Z " fill="#AC5B1D" transform="translate(117,106)"/>
<path d="M0 0 C2.64 0 5.28 0 8 0 C8 0.33 8 0.66 8 1 C5.69 1 3.38 1 1 1 C0.979375 2.134375 0.95875 3.26875 0.9375 4.4375 C0.25408361 10.07568521 -3.06490321 14.07305041 -7 18 C-11.15611071 20.64328641 -15.22045172 20.44223578 -20 20 C-23.0625 19 -23.0625 19 -25 18 C-25 18.66 -25 19.32 -25 20 C-19.80236605 21.80326076 -16.50964696 22.10192939 -11 21 C-9.865625 20.814375 -8.73125 20.62875 -7.5625 20.4375 C-6.2940625 20.2209375 -6.2940625 20.2209375 -5 20 C-6.07401108 22.91517292 -6.77810176 24.77810176 -9 27 C-11.3828125 27.4140625 -11.3828125 27.4140625 -14.125 27.625 C-15.03507812 27.69976562 -15.94515625 27.77453125 -16.8828125 27.8515625 C-17.58148438 27.90054688 -18.28015625 27.94953125 -19 28 C-16.36 28 -13.72 28 -11 28 C-12.15173355 30.46800047 -13.04783565 32.04783565 -15 34 C-19.74588678 33.86816981 -22.82300413 31.29014915 -26 28 C-27.48357656 26.05537349 -28.7311283 24.09851858 -30 22 C-29.01 22 -28.02 22 -27 22 C-27.94875 21.2575 -28.8975 20.515 -29.875 19.75 C-32.32128929 17.69604013 -34.02408746 16.12292014 -35 13 C-35.125 10.25 -35.125 10.25 -35 8 C-32 9 -32 9 -30.625 11.5 C-29.26004263 14.16197635 -29.26004263 14.16197635 -26.8125 14.75 C-25.884375 14.8325 -24.95625 14.915 -24 15 C-22.56210092 15.18441457 -21.12461474 15.3720696 -19.6875 15.5625 C-18.470625 15.706875 -17.25375 15.85125 -16 16 C-17.32 15.67 -18.64 15.34 -20 15 C-20 14.34 -20 13.68 -20 13 C-19.10796875 12.87882812 -18.2159375 12.75765625 -17.296875 12.6328125 C-16.12640625 12.46523438 -14.9559375 12.29765625 -13.75 12.125 C-12.58984375 11.96257813 -11.4296875 11.80015625 -10.234375 11.6328125 C-7.41806687 11.08179569 -5.44782443 10.44203518 -3 9 C-3 7.35 -3 5.7 -3 4 C-2.01 3.67 -1.02 3.34 0 3 C0 2.01 0 1.02 0 0 Z " fill="#454544" transform="translate(112,51)"/>
<path d="M0 0 C2.75 0.25 2.75 0.25 5 1 C5 2.32 5 3.64 5 5 C4.34 5 3.68 5 3 5 C3.45341868 6.27259511 3.91295227 7.54301243 4.375 8.8125 C4.63023438 9.52019531 4.88546875 10.22789063 5.1484375 10.95703125 C6.0265769 13.24773359 6.0265769 13.24773359 8 16 C8 17.32 8 18.64 8 20 C4.06263877 20.08696177 0.12552372 20.14037835 -3.8125 20.1875 C-4.93205078 20.21263672 -6.05160156 20.23777344 -7.20507812 20.26367188 C-8.27822266 20.27333984 -9.35136719 20.28300781 -10.45703125 20.29296875 C-11.44678955 20.3086792 -12.43654785 20.32438965 -13.45629883 20.34057617 C-16.42099994 19.94363232 -17.13650173 19.25064476 -19 17 C-19.66 16.67 -20.32 16.34 -21 16 C-21.125 13.625 -21.125 13.625 -21 11 C-17.91163785 7.91163785 -13.70274527 7.23001395 -9.5859375 6.03125 C-5.34283347 4.71154441 -2.99898248 3.22010561 0 0 Z " fill="#EDEEEB" transform="translate(53,113)"/>
<path d="M0 0 C0.33 0.99 0.66 1.98 1 3 C0.67 3.66 0.34 4.32 0 5 C-0.07092842 7.2072923 -0.08415025 9.41667452 -0.0625 11.625 C-0.05347656 12.81351563 -0.04445313 14.00203125 -0.03515625 15.2265625 C-0.02355469 16.14179687 -0.01195313 17.05703125 0 18 C1.32 18 2.64 18 4 18 C3.67 21.3 3.34 24.6 3 28 C3.99 28 4.98 28 6 28 C6 28.66 6 29.32 6 30 C-0.75 31.125 -0.75 31.125 -3 30 C-3.103125 31.2375 -3.20625 32.475 -3.3125 33.75 C-3.73801682 37.2792866 -4.48112592 39.37160966 -7 42 C-10.84129692 37.17375515 -12.62257767 34.16456476 -13 28 C-12.34 28 -11.68 28 -11 28 C-11.33 26.02 -11.66 24.04 -12 22 C-9.69 22 -7.38 22 -5 22 C-6.98 21.01 -8.96 20.02 -11 19 C-11 18.34 -11 17.68 -11 17 C-11.66 17 -12.32 17 -13 17 C-13.66 13.37 -14.32 9.74 -15 6 C-14.34 6 -13.68 6 -13 6 C-11.27735506 9.29549466 -9.70554068 12.33118845 -9 16 C-7.35 16.33 -5.7 16.66 -4 17 C-4.01160156 16.24074219 -4.02320312 15.48148438 -4.03515625 14.69921875 C-4.04417969 13.70535156 -4.05320312 12.71148437 -4.0625 11.6875 C-4.07410156 10.70136719 -4.08570312 9.71523437 -4.09765625 8.69921875 C-4 6 -4 6 -3 3 C-2.34 3 -1.68 3 -1 3 C-0.67 2.01 -0.34 1.02 0 0 Z " fill="#121011" transform="translate(69,90)"/>
<path d="M0 0 C0.99 0 1.98 0 3 0 C3 1.65 3 3.3 3 5 C4.65 4.67 6.3 4.34 8 4 C8.33 5.32 8.66 6.64 9 8 C8.360625 8.12375 7.72125 8.2475 7.0625 8.375 C6.381875 8.58125 5.70125 8.7875 5 9 C4.67 9.66 4.34 10.32 4 11 C6.31 11 8.62 11 11 11 C11.99 12.98 12.98 14.96 14 17 C13.01 16.67 12.02 16.34 11 16 C10.67 15.34 10.34 14.68 10 14 C9.01 13.67 8.02 13.34 7 13 C9.93058385 17.15166045 12.28123878 20.21390967 17.375 21.4375 C18.57125 21.623125 19.7675 21.80875 21 22 C20.34 22.66 19.68 23.32 19 24 C14.11365711 23.67424381 9.47605835 23.08188761 5 21 C3.25 18.4375 3.25 18.4375 2 16 C1.34 15.67 0.68 15.34 0 15 C1.63941527 21.6008036 3.35157882 25.10886541 9 29 C8.01 29.33 7.02 29.66 6 30 C10.67075179 35.99128744 10.67075179 35.99128744 17 40 C19.1935345 40.0146239 19.1935345 40.0146239 21 39 C21.66 38.01 22.32 37.02 23 36 C20.69 36 18.38 36 16 36 C15.67 35.34 15.34 34.68 15 34 C15.75925781 33.97421875 16.51851562 33.9484375 17.30078125 33.921875 C18.29464844 33.86515625 19.28851563 33.8084375 20.3125 33.75 C21.29863281 33.70359375 22.28476563 33.6571875 23.30078125 33.609375 C26.63353591 32.85697308 27.13325564 31.73716181 29 29 C29.99 29 30.98 29 32 29 C30.59163827 33.48115095 28.36881776 35.79160213 25 39 C23.64444707 40.64864545 22.30368347 42.31003995 21 44 C14.34632797 43.07457731 9.38684848 39.0648678 5.30859375 33.828125 C2 28.66257123 2 28.66257123 2 26 C1.34 26 0.68 26 0 26 C-0.99 24.02 -1.98 22.04 -3 20 C-3.66 20 -4.32 20 -5 20 C-5 19.34 -5 18.68 -5 18 C-5.99 18.33 -6.98 18.66 -8 19 C-8 18.34 -8 17.68 -8 17 C-8.99 16.67 -9.98 16.34 -11 16 C-9.7625 15.7525 -8.525 15.505 -7.25 15.25 C-3.47367182 14.27913549 -1.19941601 13.39076635 1 10 C1.33094958 6.22717474 1.19754817 3.59264452 0 0 Z " fill="#111517" transform="translate(77,44)"/>
<path d="M0 0 C0.66 0 1.32 0 2 0 C6.63106796 17.73786408 6.63106796 17.73786408 5 21 C4.57788935 26.54633756 4.85742148 30.85781156 7 36 C6.625 39.3125 6.625 39.3125 6 42 C5.34 42 4.68 42 4 42 C4.04125 42.78375 4.0825 43.5675 4.125 44.375 C4 47 4 47 2 49 C-0.625 48.625 -0.625 48.625 -3 48 C-3.6875 46.1875 -3.6875 46.1875 -4 44 C-3 43 -2 42 -1 41 C-0.74930087 38.37429296 -0.74930087 38.37429296 -1 36 C-2.98 35.67 -4.96 35.34 -7 35 C-6.67 33.35 -6.34 31.7 -6 30 C-5.67 30.66 -5.34 31.32 -5 32 C-4.34 32 -3.68 32 -3 32 C-3 31.01 -3 30.02 -3 29 C-2.67 28.67 -2.34 28.34 -2 28 C-2 27.01 -2 26.02 -2 25 C-1.01 25 -0.02 25 1 25 C-0.61268692 22.28775382 -2.24901874 19.62647188 -4 17 C-3.01 17 -2.02 17 -1 17 C-0.67 15.35 -0.34 13.7 0 12 C-0.66 12 -1.32 12 -2 12 C-2.33 12.99 -2.66 13.98 -3 15 C-3.36263859 9.1977825 -2.25684543 5.36000789 0 0 Z " fill="#16110D" transform="translate(106,5)"/>
<path d="M0 0 C4.31354337 0.86087702 6.13422493 2.61985505 9 6 C11.0631961 10.0552475 12 12.42809719 12 17 C12.99 17.33 13.98 17.66 15 18 C12 20 12 20 9 20 C8.67 21.98 8.34 23.96 8 26 C9.32 25.67 10.64 25.34 12 25 C12.309375 25.78375 12.61875 26.5675 12.9375 27.375 C13.92875038 29.92330128 13.92875038 29.92330128 15 32 C11.26562152 32.87867729 7.83225427 33.08912219 4 33 C3.731875 31.948125 3.46375 30.89625 3.1875 29.8125 C2.23318108 26.0913433 2.23318108 26.0913433 0.375 23.625 C-1.60185759 19.85099914 -1.45026857 16.19096128 -1 12 C-0.67 11.67 -0.34 11.34 0 11 C0.07226502 9.14712498 0.0838122 7.29166122 0.0625 5.4375 C0.05347656 4.42558594 0.04445313 3.41367188 0.03515625 2.37109375 C0.02355469 1.58863281 0.01195313 0.80617188 0 0 Z " fill="#111416" transform="translate(74,6)"/>
<path d="M0 0 C0.93423645 3.01031744 1.04449911 3.86650268 0 7 C-1.99107248 8.01765927 -3.99218823 9.01577854 -6 10 C-8.73737067 12.36745572 -9.84709902 13.54129705 -11 17 C-10.34 17 -9.68 17 -9 17 C-8.34 18.65 -7.68 20.3 -7 22 C-7.66 22.66 -8.32 23.32 -9 24 C-8.236875 24.350625 -7.47375 24.70125 -6.6875 25.0625 C-3.16683963 27.6006505 -2.29325383 29.9046962 -1 34 C-1.4296875 36.22265625 -1.4296875 36.22265625 -2 38 C-21.71290174 41.21897586 -21.71290174 41.21897586 -31.1875 37.875 C-33 36 -33 36 -33.5 32.875 C-32.91076543 28.30843206 -31.63356136 24.28809856 -30 20 C-29.34 20.66 -28.68 21.32 -28 22 C-28.2421875 24.0234375 -28.2421875 24.0234375 -28.875 26.375 C-29.70442566 29.51421863 -30 31.66718457 -30 35 C-26.04 35.66 -22.08 36.32 -18 37 C-18 35.68 -18 34.36 -18 33 C-17.34 33 -16.68 33 -16 33 C-15.67 33.99 -15.34 34.98 -15 36 C-13.02 36.33 -11.04 36.66 -9 37 C-9.33 34.69 -9.66 32.38 -10 30 C-9.01 30.33 -8.02 30.66 -7 31 C-7 32.32 -7 33.64 -7 35 C-6.01 35 -5.02 35 -4 35 C-4.82782384 31.89566062 -5.47507284 29.56381066 -7.6875 27.1875 C-10.74116157 25.61940352 -13.60671302 25.32627759 -17 25 C-16.15860941 17.40534286 -12.04990952 11.62434075 -6.3125 6.6875 C-5.549375 6.130625 -4.78625 5.57375 -4 5 C-2.62631655 3.36643049 -1.28062485 1.7074998 0 0 Z " fill="#1C0E0B" transform="translate(91,110)"/>
<path d="M0 0 C4.25331827 0.86802414 6.18199992 2.40158324 9.0625 5.625 C9.75 9.125 9.75 9.125 9.0625 12.625 C7.06350675 15.56102134 5.61729057 17.24630844 2.08984375 18.10546875 C-1.61383097 18.36161074 -3.57703096 17.92238696 -6.4375 15.5625 C-8.33225662 11.85193494 -8.59904724 9.74129392 -7.9375 5.625 C-5.51605492 2.27770827 -4.06319154 0.86450884 0 0 Z " fill="#A3CED7" transform="translate(69.9375,41.375)"/>
<path d="M0 0 C7.26 0 14.52 0 22 0 C21.67 4.29 21.34 8.58 21 13 C23.97 13.99 26.94 14.98 30 16 C30 16.33 30 16.66 30 17 C24.21101581 17.20674944 19.57067277 16.59162079 14 15 C14 12.36 14 9.72 14 7 C7.73 7 1.46 7 -5 7 C-5 6.67 -5 6.34 -5 6 C-3.35 6 -1.7 6 0 6 C0 4.02 0 2.04 0 0 Z " fill="#878989" transform="translate(38,133)"/>
<path d="M0 0 C1.32229189 2.64458379 1.09677194 4.67761301 1.0625 7.625 C1.05347656 8.62789062 1.04445313 9.63078125 1.03515625 10.6640625 C1.02355469 11.43492188 1.01195313 12.20578125 1 13 C1.66 13 2.32 13 3 13 C3.33 12.01 3.66 11.02 4 10 C5.04449911 13.13349732 4.93423645 13.98968256 4 17 C5.32 17.33 6.64 17.66 8 18 C1.57934547 24.19925265 -7.32616301 26.34537079 -16 27 C-16.30078125 24.71875 -16.30078125 24.71875 -16 22 C-13.91796875 20.15625 -13.91796875 20.15625 -11.1875 18.5 C-6.43398914 15.59164704 -3.86648115 13.01808043 -2.3046875 7.578125 C-2.16289063 6.80984375 -2.02109375 6.0415625 -1.875 5.25 C-1.08979592 1.08979592 -1.08979592 1.08979592 0 0 Z " fill="#121F23" transform="translate(40,94)"/>
<path d="M0 0 C2.62702061 1.42127057 3.91873 2.71567927 6 5 C6.375 7.8125 6.375 7.8125 6 10 C5.01 10 4.02 10 3 10 C2.87625 9.360625 2.7525 8.72125 2.625 8.0625 C2.41875 7.381875 2.2125 6.70125 2 6 C1.34 5.67 0.68 5.34 0 5 C0.33 7.31 0.66 9.62 1 12 C-0.98 12 -2.96 12 -5 12 C-5.33 10.68 -5.66 9.36 -6 8 C-6.66 8 -7.32 8 -8 8 C-8 9.32 -8 10.64 -8 12 C-9.98 12 -11.96 12 -14 12 C-14 11.34 -14 10.68 -14 10 C-14.99 9.67 -15.98 9.34 -17 9 C-17 7.35 -17 5.7 -17 4 C-5.87060356 -1.016066 -5.87060356 -1.016066 0 0 Z " fill="#B16418" transform="translate(81,135)"/>
<path d="M0 0 C0 0.99 0 1.98 0 3 C0.15127402 4.56406528 0.31902522 6.12659252 0.5 7.6875 C0.5928125 8.49574219 0.685625 9.30398437 0.78125 10.13671875 C0.8534375 10.75160156 0.925625 11.36648437 1 12 C3.64 12.99 6.28 13.98 9 15 C9 15.99 9 16.98 9 18 C8.34 18 7.68 18 7 18 C7.7223277 21.10281879 7.7223277 21.10281879 10.125 22.625 C13.43781262 24.20938865 16.36260716 24.64339286 20 25 C20 28.63 20 32.26 20 36 C16.7 35.67 13.4 35.34 10 35 C9.73445313 34.11957031 9.46890625 33.23914063 9.1953125 32.33203125 C8.84210938 31.17058594 8.48890625 30.00914062 8.125 28.8125 C7.77695313 27.66394531 7.42890625 26.51539063 7.0703125 25.33203125 C6.15781129 22.49128843 5.15019636 19.75114535 4 17 C4.66 17 5.32 17 6 17 C6 16.34 6 15.68 6 15 C5.113125 14.9175 4.22625 14.835 3.3125 14.75 C-0.41255464 13.9065914 -2.20928838 12.54447236 -5 10 C-4.49701212 5.59885603 -2.91227269 3.28804981 0 0 Z " fill="#904922" transform="translate(116,108)"/>
<path d="M0 0 C1.875 0.625 1.875 0.625 4 2 C5.90148164 6.47875118 6.16188275 10.29870981 6.1875 15.125 C6.53354656 22.29310731 8.52239942 26.68319127 12.6015625 32.51171875 C14 35 14 35 13.7109375 37.33203125 C13.47632813 37.88246094 13.24171875 38.43289062 13 39 C11.82807953 37.04480616 10.6626071 35.0857461 9.5 33.125 C8.52546875 31.48917969 8.52546875 31.48917969 7.53125 29.8203125 C6 27 6 27 6 25 C5.236875 24.731875 4.47375 24.46375 3.6875 24.1875 C1.00858776 23.00379459 -0.19004702 22.24454621 -2 20 C-3.71361874 13.6285585 -3.06357362 7.20485491 -1 1 C-0.67 0.67 -0.34 0.34 0 0 Z " fill="#1F2727" transform="translate(122,92)"/>
<path d="M0 0 C0.99 0 1.98 0 3 0 C3.33 0.66 3.66 1.32 4 2 C6.52733235 2.65555119 6.52733235 2.65555119 9 3 C9 3.66 9 4.32 9 5 C8.34 5 7.68 5 7 5 C7 5.99 7 6.98 7 8 C6.01 8.33 5.02 8.66 4 9 C3.67 9.66 3.34 10.32 3 11 C3.969375 10.979375 4.93875 10.95875 5.9375 10.9375 C9 11 9 11 10 12 C10.1875 14.4375 10.1875 14.4375 10 17 C8 19 8 19 5.0625 19.3125 C2 19 2 19 0.25 17.8125 C-1.23460833 15.65981793 -2.04252169 13.42561171 -3 11 C-3.66 10.67 -4.32 10.34 -5 10 C-5 9.34 -5 8.68 -5 8 C-4.34 8 -3.68 8 -3 8 C-3 7.34 -3 6.68 -3 6 C-4.32 6.33 -5.64 6.66 -7 7 C-7.33 6.34 -7.66 5.68 -8 5 C-7.34 5 -6.68 5 -6 5 C-6 4.34 -6 3.68 -6 3 C-6.66 2.67 -7.32 2.34 -8 2 C-7.4225 2.165 -6.845 2.33 -6.25 2.5 C-3.73335631 3.14462031 -3.73335631 3.14462031 0 3 C0 2.01 0 1.02 0 0 Z " fill="#222929" transform="translate(96,29)"/>
<path d="M0 0 C6.62124598 0.27588525 9.99749598 2.84520063 15 7 C15.99 7.70125 16.98 8.4025 18 9.125 C18.66 9.74375 19.32 10.3625 20 11 C20 12.32 20 13.64 20 15 C17.48203847 16.58538318 16.32134414 17.0373656 13.3125 16.6875 C11 16 11 16 10 15 C9.95907063 12.66702567 9.95758277 10.33294775 10 8 C9.01 8 8.02 8 7 8 C7.33 9.65 7.66 11.3 8 13 C7.566875 12.525625 7.13375 12.05125 6.6875 11.5625 C4.97690387 9.76313043 4.97690387 9.76313043 2 9 C2.33 7.68 2.66 6.36 3 5 C3.66 5 4.32 5 5 5 C5 4.34 5 3.68 5 3 C3.68 3 2.36 3 1 3 C1 3.66 1 4.32 1 5 C0.01 4.67 -0.98 4.34 -2 4 C-1.34 2.68 -0.68 1.36 0 0 Z " fill="#B16723" transform="translate(79,38)"/>
<path d="M0 0 C4.34378647 0.88535775 6.16779397 2.51420796 9 6 C10.24150932 8.94119469 11.17419062 11.91832109 12 15 C11.01 15 10.02 15 9 15 C8.67 16.65 8.34 18.3 8 20 C7.34 20 6.68 20 6 20 C6 20.66 6 21.32 6 22 C5.01 21.67 4.02 21.34 3 21 C1.88015881 18.76031763 1.71344334 17.1344334 1.46484375 14.6484375 C1.37783203 13.79765625 1.29082031 12.946875 1.20117188 12.0703125 C1.11416016 11.18085938 1.02714844 10.29140625 0.9375 9.375 C0.84662109 8.4778125 0.75574219 7.580625 0.66210938 6.65625 C0.43790708 4.43782728 0.21735434 2.2191024 0 0 Z " fill="#3B2A25" transform="translate(74,6)"/>
<path d="M0 0 C1.06671952 3.20015856 0.94845472 4.88544294 0.5625 8.1875 C0.46066406 9.08855469 0.35882812 9.98960937 0.25390625 10.91796875 C0.12822266 11.94857422 0.12822266 11.94857422 0 13 C0.99 13.33 1.98 13.66 3 14 C3 12.68 3 11.36 3 10 C5.4375 10.375 5.4375 10.375 8 11 C8.33 11.66 8.66 12.32 9 13 C9 11.68 9 10.36 9 9 C10.32 9.33 11.64 9.66 13 10 C13 10.99 13 11.98 13 13 C13.66 13 14.32 13 15 13 C14.67 11.35 14.34 9.7 14 8 C11.03 7.505 11.03 7.505 8 7 C8.66 5.68 9.32 4.36 10 3 C10 3.99 10 4.98 10 6 C10.78375 5.938125 11.5675 5.87625 12.375 5.8125 C13.674375 5.9053125 13.674375 5.9053125 15 6 C17.29013653 9.4352048 17.17842973 10.985331 17 15 C12.90020638 15.97614134 9.02184446 16.16532221 4.8125 16.1875 C2.96591797 16.20876953 2.96591797 16.20876953 1.08203125 16.23046875 C-2 16 -2 16 -4 14 C-4.01171875 11.9765625 -4.01171875 11.9765625 -3.6875 9.625 C-3.58824219 8.85414063 -3.48898438 8.08328125 -3.38671875 7.2890625 C-2.66819298 3.03597054 -2.66819298 3.03597054 -2 1 C-1.34 0.67 -0.68 0.34 0 0 Z " fill="#633E28" transform="translate(21,124)"/>
<path d="M0 0 C0.66 0.66 1.32 1.32 2 2 C1.7578125 4.0234375 1.7578125 4.0234375 1.125 6.375 C0.29557434 9.51421863 0 11.66718457 0 15 C5.94 15.99 5.94 15.99 12 17 C12 15.68 12 14.36 12 13 C12.66 13 13.32 13 14 13 C14.33 13.99 14.66 14.98 15 16 C16.98 16.33 18.96 16.66 21 17 C20.67 14.69 20.34 12.38 20 10 C20.99 10.33 21.98 10.66 23 11 C23 12.32 23 13.64 23 15 C23.99 15 24.98 15 26 15 C26.33 14.34 26.66 13.68 27 13 C27.33 14.65 27.66 16.3 28 18 C8.28709826 21.21897586 8.28709826 21.21897586 -1.1875 17.875 C-3 16 -3 16 -3.5 12.875 C-2.91076543 8.30843206 -1.63356136 4.28809856 0 0 Z " fill="#442E21" transform="translate(61,130)"/>
<path d="M0 0 C1.9375 0.5625 1.9375 0.5625 4 2 C4.75 5.625 4.75 5.625 5 9 C9.53286578 10.85963724 13.23653755 11.16081571 18.046875 10.97265625 C20 11 20 11 22 12 C21.67 13.32 21.34 14.64 21 16 C18.69 15.67 16.38 15.34 14 15 C14.99 14.67 15.98 14.34 17 14 C17 13.34 17 12.68 17 12 C12.67628107 14.02633069 12.67628107 14.02633069 9 17 C7 16.9375 7 16.9375 5 16 C3.75 13.4375 3.75 13.4375 3 11 C0.69 11 -1.62 11 -4 11 C-3.67 10.01 -3.34 9.02 -3 8 C-0.9375 7.3125 -0.9375 7.3125 1 7 C0.67 4.69 0.34 2.38 0 0 Z " fill="#531E0D" transform="translate(85,44)"/>
<path d="M0 0 C0.66 0.33 1.32 0.66 2 1 C1.67 2.65 1.34 4.3 1 6 C2.093125 6.639375 3.18625 7.27875 4.3125 7.9375 C4.92738281 8.29714844 5.54226562 8.65679687 6.17578125 9.02734375 C8.13819555 10.13901247 8.13819555 10.13901247 11 11 C11 11.66 11 12.32 11 13 C10.34 13 9.68 13 9 13 C9.34933594 13.6290625 9.69867188 14.258125 10.05859375 14.90625 C12.98441785 20.40978315 14.65382411 24.76883393 15 31 C18.3 31.33 21.6 31.66 25 32 C25 32.66 25 33.32 25 34 C23.56260487 34.02712066 22.12506137 34.04645067 20.6875 34.0625 C19.88699219 34.07410156 19.08648437 34.08570313 18.26171875 34.09765625 C16 34 16 34 13 33 C12.05078125 29.83984375 12.05078125 29.83984375 11.3125 25.9375 C11.06113281 24.64714844 10.80976562 23.35679687 10.55078125 22.02734375 C10.36902344 21.02832031 10.18726562 20.02929688 10 19 C9.34 19 8.68 19 8 19 C7.608125 18.113125 7.21625 17.22625 6.8125 16.3125 C4.31387034 11.7460389 1.30778378 8.87185586 -3 6 C-1.125 1.125 -1.125 1.125 0 0 Z " fill="#3B1C12" transform="translate(111,112)"/>
<path d="M0 0 C0 1.98 0 3.96 0 6 C0.804375 6.226875 1.60875 6.45375 2.4375 6.6875 C3.283125 7.120625 4.12875 7.55375 5 8 C5.8125 10.625 5.8125 10.625 6 13 C5.34 13 4.68 13 4 13 C3.67 12.01 3.34 11.02 3 10 C2.34 10 1.68 10 1 10 C0.67 11.32 0.34 12.64 0 14 C-0.33 13.01 -0.66 12.02 -1 11 C-2.65 10.67 -4.3 10.34 -6 10 C-6 10.99 -6 11.98 -6 13 C-6.99 12.67 -7.98 12.34 -9 12 C-8.74476126 10.37247769 -8.47025506 8.74796804 -8.1875 7.125 C-8.03667969 6.22007812 -7.88585937 5.31515625 -7.73046875 4.3828125 C-6.40927926 0.07305 -4.22709174 0 0 0 Z " fill="#A2501B" transform="translate(30,124)"/>
<path d="M0 0 C1.32 0 2.64 0 4 0 C4 1.98 4 3.96 4 6 C3.01 6 2.02 6 1 6 C1.66 6.598125 2.32 7.19625 3 7.8125 C5 10 5 10 5 13 C2.64561267 14.42944945 1.51967567 15.08661261 -1.25 14.625 C-1.8275 14.41875 -2.405 14.2125 -3 14 C-3 13.34 -3 12.68 -3 12 C-4.65 12 -6.3 12 -8 12 C-8 11.34 -8 10.68 -8 10 C-7.360625 9.71125 -6.72125 9.4225 -6.0625 9.125 C-3.84793921 8.17176549 -3.84793921 8.17176549 -3 6 C-5.64 6.33 -8.28 6.66 -11 7 C-11 6.34 -11 5.68 -11 5 C-7.7 4.67 -4.4 4.34 -1 4 C-0.67 2.68 -0.34 1.36 0 0 Z " fill="#1F2224" transform="translate(102,17)"/>
<path d="M0 0 C2.64 0 5.28 0 8 0 C8 0.33 8 0.66 8 1 C5.69 1 3.38 1 1 1 C0.979375 2.134375 0.95875 3.26875 0.9375 4.4375 C0.25408361 10.07568521 -3.06490321 14.07305041 -7 18 C-10.67904108 20.30390048 -13.69747133 20.16548187 -18 20 C-18 19.34 -18 18.68 -18 18 C-15.03 17.34 -12.06 16.68 -9 16 C-9 15.34 -9 14.68 -9 14 C-11.64 14 -14.28 14 -17 14 C-16.67 13.34 -16.34 12.68 -16 12 C-14.07421875 11.65625 -14.07421875 11.65625 -11.6875 11.5 C-8.29377299 11.27562135 -5.96866291 10.68473319 -3 9 C-3 7.35 -3 5.7 -3 4 C-2.01 3.67 -1.02 3.34 0 3 C0 2.01 0 1.02 0 0 Z " fill="#4F4D49" transform="translate(112,51)"/>
<path d="M0 0 C3 1 3 1 4.375 3.5 C5.73995737 6.16197635 5.73995737 6.16197635 8.1875 6.75 C9.115625 6.8325 10.04375 6.915 11 7 C12.43789908 7.18441457 13.87538526 7.3720696 15.3125 7.5625 C16.529375 7.706875 17.74625 7.85125 19 8 C17.68 7.67 16.36 7.34 15 7 C15 6.34 15 5.68 15 5 C20.445 5.495 20.445 5.495 26 6 C26 6.66 26 7.32 26 8 C22.86501708 9.85776765 20.62528568 10.20140476 17 10 C17 10.66 17 11.32 17 12 C14.69 11.34 12.38 10.68 10 10 C10 10.66 10 11.32 10 12 C7.53199953 10.84826645 5.95216435 9.95216435 4 8 C3.01 8.495 3.01 8.495 2 9 C0.14223235 5.86501708 -0.20140476 3.62528568 0 0 Z " fill="#333733" transform="translate(77,59)"/>
<path d="M0 0 C0.66 0 1.32 0 2 0 C1.84402344 0.67933594 1.68804687 1.35867187 1.52734375 2.05859375 C0.51743267 7.69165332 0.26962267 13.31850713 1 19 C3.57776469 21.27589884 3.57776469 21.27589884 7 23 C14.26064048 32.99405807 14.26064048 32.99405807 13.69140625 37.375 C13.46324219 37.91125 13.23507813 38.4475 13 39 C11.82807953 37.04480616 10.6626071 35.0857461 9.5 33.125 C8.52546875 31.48917969 8.52546875 31.48917969 7.53125 29.8203125 C6 27 6 27 6 25 C5.236875 24.731875 4.47375 24.46375 3.6875 24.1875 C1.00858776 23.00379459 -0.19004702 22.24454621 -2 20 C-3.71361874 13.6285585 -3.06357362 7.20485491 -1 1 C-0.67 0.67 -0.34 0.34 0 0 Z " fill="#101616" transform="translate(122,92)"/>
<path d="M0 0 C1.80411967 2.75924185 2.0127245 3.88972103 1.625 7.25 C1.41875 8.1575 1.2125 9.065 1 10 C0.34 10 -0.32 10 -1 10 C-0.95875 10.78375 -0.9175 11.5675 -0.875 12.375 C-1 15 -1 15 -3 17 C-5.625 16.625 -5.625 16.625 -8 16 C-8.75 14.25 -8.75 14.25 -9 12 C-7.66666667 10.66666667 -6.33333333 9.33333333 -5 8 C-4.19684346 4.85518209 -4.19684346 4.85518209 -4 2 C-2.68 2 -1.36 2 0 2 C0 1.34 0 0.68 0 0 Z " fill="#895528" transform="translate(111,37)"/>
<path d="M0 0 C4.23202372 -0.42320237 7.04475835 -0.40361534 10.4375 2.1875 C13 5 13 5 13.375 7.8125 C13.25125 8.534375 13.1275 9.25625 13 10 C12.01 10 11.02 10 10 10 C9.87625 9.360625 9.7525 8.72125 9.625 8.0625 C9.41875 7.381875 9.2125 6.70125 9 6 C8.34 5.67 7.68 5.34 7 5 C7.33 7.31 7.66 9.62 8 12 C6.02 12 4.04 12 2 12 C1.34 10.02 0.68 8.04 0 6 C1.32 6.33 2.64 6.66 4 7 C4 8.32 4 9.64 4 11 C4.66 11 5.32 11 6 11 C4.07608351 5.68588506 4.07608351 5.68588506 0 2 C0 1.34 0 0.68 0 0 Z " fill="#A5692A" transform="translate(74,135)"/>
<path d="M0 0 C1.32 0 2.64 0 4 0 C3.67 1.98 3.34 3.96 3 6 C5.31 6.33 7.62 6.66 10 7 C10.33 6.34 10.66 5.68 11 5 C12 6 12 6 12.1875 8.4375 C12 11 12 11 10 13 C4.81316554 13.5517909 4.81316554 13.5517909 2.25 11.8125 C0.76539167 9.65981793 -0.04252169 7.42561171 -1 5 C-1.66 4.67 -2.32 4.34 -3 4 C-3 3.34 -3 2.68 -3 2 C-2.01 2 -1.02 2 0 2 C0 1.34 0 0.68 0 0 Z " fill="#0E0707" transform="translate(94,35)"/>
<path d="M0 0 C0.33 0 0.66 0 1 0 C1.35050464 5.841744 1.16727335 9.8531808 -2 15 C-3 13 -3 13 -3 10 C-3.5259375 10.8971875 -3.5259375 10.8971875 -4.0625 11.8125 C-6.75723704 14.85494505 -9.12954248 15.79444766 -13 17 C-17.3085337 17.06430647 -21.30725246 16.30796721 -25 14 C-25 13.34 -25 12.68 -25 12 C-24.360625 12.165 -23.72125 12.33 -23.0625 12.5 C-17.53828473 13.4019127 -11.88674202 14.13863918 -7 11 C-5.28488836 9.17551555 -5.28488836 9.17551555 -3.8125 7.0625 C-3.30332031 6.37285156 -2.79414062 5.68320312 -2.26953125 4.97265625 C-0.83841192 2.92771646 -0.83841192 2.92771646 0 0 Z " fill="#131413" transform="translate(112,57)"/>
<path d="M0 0 C-1.32 0.33 -2.64 0.66 -4 1 C-3.67 1.99 -3.34 2.98 -3 4 C-3.99 4 -4.98 4 -6 4 C-5.87625 5.299375 -5.7525 6.59875 -5.625 7.9375 C-5.55539063 8.66839844 -5.48578125 9.39929688 -5.4140625 10.15234375 C-5.27742188 10.76207031 -5.14078125 11.37179688 -5 12 C-4.34 12.33 -3.68 12.66 -3 13 C-3 13.99 -3 14.98 -3 16 C-4.32 16.33 -5.64 16.66 -7 17 C-9.76383547 14.14979467 -10.92501775 12.46655624 -11.5625 8.5 C-11 5 -11 5 -8.875 2.0625 C-5.56851204 -0.30954571 -3.9760803 -0.46233492 0 0 Z " fill="#7AC0CA" transform="translate(73,42)"/>
<path d="M0 0 C0.33 0 0.66 0 1 0 C0.67 3.63 0.34 7.26 0 11 C-0.99 11.33 -1.98 11.66 -3 12 C-3.825 12.825 -4.65 13.65 -5.5 14.5 C-8 17 -8 17 -11 18 C-10.67 16.68 -10.34 15.36 -10 14 C-9.34 14 -8.68 14 -8 14 C-8 13.34 -8 12.68 -8 12 C-8.66 11.67 -9.32 11.34 -10 11 C-9.01 11 -8.02 11 -7 11 C-6.67 8.36 -6.34 5.72 -6 3 C-4.68 3.33 -3.36 3.66 -2 4 C-1.34 2.68 -0.68 1.36 0 0 Z " fill="#223132" transform="translate(91,100)"/>
<path d="M0 0 C7.49122807 0.49122807 7.49122807 0.49122807 10 3 C11 5 11 5 11 6 C13.64 6 16.28 6 19 6 C17.84826645 8.46800047 16.95216435 10.04783565 15 12 C10.25411322 11.86816981 7.17699587 9.29014915 4 6 C2.51642344 4.05537349 1.2688717 2.09851858 0 0 Z " fill="#343536" transform="translate(82,73)"/>
<path d="M0 0 C-0.60867533 3.55060608 -1.24145134 6.83461241 -3 10 C-5.5 10.9375 -5.5 10.9375 -8 11 C-8.66 10.34 -9.32 9.68 -10 9 C-9.625 5.375 -9.625 5.375 -9 2 C-5.62902617 0.50178941 -3.79557881 0 0 0 Z " fill="#B7822B" transform="translate(77,124)"/>
<path d="M0 0 C0.33 1.32 0.66 2.64 1 4 C5.455 3.505 5.455 3.505 10 3 C9.835 3.928125 9.67 4.85625 9.5 5.8125 C8.92251612 8.95621353 8.92251612 8.95621353 9 12 C9.66 12.33 10.32 12.66 11 13 C10.01 13 9.02 13 8 13 C7.67 11.02 7.34 9.04 7 7 C5.02 7.66 3.04 8.32 1 9 C0.61102839 10.62171239 0.23921702 12.24754925 -0.125 13.875 C-0.33382813 14.77992188 -0.54265625 15.68484375 -0.7578125 16.6171875 C-0.83773438 17.40351563 -0.91765625 18.18984375 -1 19 C-0.34 19.66 0.32 20.32 1 21 C-0.32 20.67 -1.64 20.34 -3 20 C-2.87431641 18.73542969 -2.87431641 18.73542969 -2.74609375 17.4453125 C-2.64425781 16.34960938 -2.54242187 15.25390625 -2.4375 14.125 C-2.33308594 13.03445312 -2.22867187 11.94390625 -2.12109375 10.8203125 C-1.77360596 8.04847977 -1.77360596 8.04847977 -3 6 C-2.06553465 3.96855359 -1.06775224 1.96466413 0 0 Z " fill="#684B3C" transform="translate(23,117)"/>
<path d="M0 0 C3.875 0.875 3.875 0.875 5 2 C5.04092937 4.33297433 5.04241723 6.66705225 5 9 C4.34 9 3.68 9 3 9 C2.67 9.99 2.34 10.98 2 12 C0.02 11.01 -1.96 10.02 -4 9 C-3.67 7.02 -3.34 5.04 -3 3 C-2.34 3 -1.68 3 -1 3 C-0.67 2.01 -0.34 1.02 0 0 Z " fill="#DDEBE8" transform="translate(73,44)"/>
<path d="M0 0 C-2.64738916 1.4606285 -3.89448334 2 -7 2 C-7.0825 2.7425 -7.165 3.485 -7.25 4.25 C-8.16692005 7.61204018 -9.18181152 8.96464165 -12 11 C-14.75 10.75 -14.75 10.75 -17 10 C-17.125 7.625 -17.125 7.625 -17 5 C-14.39104541 2.39104541 -12.01733462 1.89026736 -8.5 0.8125 C-7.3346875 0.44769531 -6.169375 0.08289063 -4.96875 -0.29296875 C-2 -1 -2 -1 0 0 Z " fill="#DAD9D7" transform="translate(49,119)"/>
<path d="M0 0 C4.17906895 3.55994763 6.68559431 8.08663054 9 13 C9 13.66 9 14.32 9 15 C5.8125 15.3125 5.8125 15.3125 2 15 C-0.9375 12.5 -0.9375 12.5 -3 10 C0 8 0 8 2 8 C1.34 5.36 0.68 2.72 0 0 Z " fill="#BA6E26" transform="translate(127,118)"/>
<path d="M0 0 C0.99 0 1.98 0 3 0 C3 1.65 3 3.3 3 5 C4.65 4.67 6.3 4.34 8 4 C8.33 5.32 8.66 6.64 9 8 C8.360625 8.12375 7.72125 8.2475 7.0625 8.375 C6.381875 8.58125 5.70125 8.7875 5 9 C4.67 9.66 4.34 10.32 4 11 C6.31 11 8.62 11 11 11 C11.99 12.98 12.98 14.96 14 17 C13.01 16.67 12.02 16.34 11 16 C10.67 15.34 10.34 14.68 10 14 C9.01 13.67 8.02 13.34 7 13 C6.67 13.66 6.34 14.32 6 15 C4.02 14.34 2.04 13.68 0 13 C0.33 12.01 0.66 11.02 1 10 C1.13156527 6.31617231 1.16982138 3.50946415 0 0 Z " fill="#241D19" transform="translate(77,44)"/>
<path d="M0 0 C-6.42065453 6.19925265 -15.32616301 8.34537079 -24 9 C-24 7.35 -24 5.7 -24 4 C-23.01 4 -22.02 4 -21 4 C-20.34 4.66 -19.68 5.32 -19 6 C-17.0068433 6.02375926 -17.0068433 6.02375926 -14.875 5.625 C-13.59625 5.41875 -12.3175 5.2125 -11 5 C-11 4.01 -11 3.02 -11 2 C-9.54494642 1.47007308 -8.08581873 0.9513211 -6.625 0.4375 C-5.81289063 0.14746094 -5.00078125 -0.14257812 -4.1640625 -0.44140625 C-2 -1 -2 -1 0 0 Z " fill="#251D1B" transform="translate(48,112)"/>
<path d="M0 0 C1.42354134 2.54203811 2.21670323 4.78554919 3 7.625 C3.71908078 11.03714202 3.71908078 11.03714202 6 13 C7.98821313 13.39764263 9.98944339 13.73775349 12 14 C11.01 14.66 10.02 15.32 9 16 C9.33 16.99 9.66 17.98 10 19 C7.69 19.33 5.38 19.66 3 20 C2.31640625 16.97265625 2.31640625 16.97265625 1.6328125 13.9453125 C1.09525572 11.79280036 1.09525572 11.79280036 -1 10 C-1.23046875 7.87109375 -1.23046875 7.87109375 -1.1875 5.4375 C-1.18105469 4.63183594 -1.17460938 3.82617188 -1.16796875 2.99609375 C-1 1 -1 1 0 0 Z " fill="#323F44" transform="translate(60,45)"/>
<path d="M0 0 C0.33 0 0.66 0 1 0 C1.09765625 6.15234375 1.09765625 6.15234375 1 8 C0.67 8.33 0.34 8.66 0 9 C0.99 9 1.98 9 3 9 C3 9.66 3 10.32 3 11 C2.01 11 1.02 11 0 11 C0 12.98 0 14.96 0 17 C-0.391875 16.360625 -0.78375 15.72125 -1.1875 15.0625 C-3.38472296 12.56221181 -4.75791433 12.35049575 -8 12 C-7.67 10.35 -7.34 8.7 -7 7 C-6.67 7.66 -6.34 8.32 -6 9 C-5.34 9 -4.68 9 -4 9 C-4 8.01 -4 7.02 -4 6 C-3.67 5.67 -3.34 5.34 -3 5 C-3 4.01 -3 3.02 -3 2 C-2.01 2 -1.02 2 0 2 C0 1.34 0 0.68 0 0 Z " fill="#2D2F1D" transform="translate(107,28)"/>
<path d="M0 0 C0.33 0.66 0.66 1.32 1 2 C-1.18297872 7.51489362 -1.18297872 7.51489362 -4 9.1875 C-4.66 9.455625 -5.32 9.72375 -6 10 C-6.495 10.495 -6.99 10.99 -7.5 11.5 C-9.24764616 13.24764616 -10.67594347 14.15488853 -13 15 C-15.25 14.625 -15.25 14.625 -17 14 C-17.07654536 9.48382401 -17.10228696 5.40914783 -16 1 C-15.34 1 -14.68 1 -14 1 C-13.91840426 5.16138263 -14.01751476 8.9472484 -15 13 C-10.07237854 10.18934213 -6.33887104 7.69915184 -3 3 C-2.01769502 1.9826127 -1.02530403 0.97403883 0 0 Z " fill="#11161C" transform="translate(108,100)"/>
<path d="M0 0 C0.33 0.99 0.66 1.98 1 3 C1.78375 2.938125 2.5675 2.87625 3.375 2.8125 C4.674375 2.9053125 4.674375 2.9053125 6 3 C8 6 8 6 8 12 C3.71 12 -0.58 12 -5 12 C-4.67 10.68 -4.34 9.36 -4 8 C-3.67 8.66 -3.34 9.32 -3 10 C-0.97536745 10.65213292 -0.97536745 10.65213292 1 11 C0.67 9.35 0.34 7.7 0 6 C1.32 6.33 2.64 6.66 4 7 C4 7.99 4 8.98 4 10 C4.66 10 5.32 10 6 10 C5.67 8.35 5.34 6.7 5 5 C2.03 4.505 2.03 4.505 -1 4 C-0.67 2.68 -0.34 1.36 0 0 Z " fill="#482715" transform="translate(30,127)"/>
<path d="M0 0 C0.33 1.32 0.66 2.64 1 4 C1.33 3.67 1.66 3.34 2 3 C4.65164593 1.49740064 5.87464745 1 9 1 C8.34 2.32 7.68 3.64 7 5 C7.763125 5.350625 8.52625 5.70125 9.3125 6.0625 C12.80646805 8.5814072 13.63326192 10.97171934 15 15 C15 15.99 15 16.98 15 18 C13.35 18 11.7 18 10 18 C10.99 17.67 11.98 17.34 13 17 C10.86044526 10.90710559 10.86044526 10.90710559 6 7 C2.34725531 6.27518916 2.34725531 6.27518916 -1 6 C-0.67 4.02 -0.34 2.04 0 0 Z " fill="#301F19" transform="translate(75,129)"/>
<path d="M0 0 C2.31 0.66 4.62 1.32 7 2 C7 1.34 7 0.68 7 0 C8.32 0 9.64 0 11 0 C10.67 0.99 10.34 1.98 10 3 C9.34 3 8.68 3 8 3 C7.13375 4.2065625 7.13375 4.2065625 6.25 5.4375 C3.540574 8.52323517 2.00592666 8.72686864 -2 9 C-1.125 1.125 -1.125 1.125 0 0 Z " fill="#2F2E21" transform="translate(45,103)"/>
<path d="M0 0 C1 3 1 3 0.4375 5.375 C-1.41537635 8.75851334 -3.68656312 11.07775784 -7 13 C-10.875 13.8125 -10.875 13.8125 -14 14 C-11.9529938 11.89699667 -9.82645899 9.99062322 -7.5625 8.125 C-4.65339842 5.65965968 -2.26757213 3.0838981 0 0 Z " fill="#8D542E" transform="translate(54,104)"/>
<path d="M0 0 C6.52307692 0.61538462 6.52307692 0.61538462 8.9375 2.5625 C9.288125 3.036875 9.63875 3.51125 10 4 C9.01 4.66 8.02 5.32 7 6 C7.33 8.31 7.66 10.62 8 13 C7.566875 12.525625 7.13375 12.05125 6.6875 11.5625 C4.97690387 9.76313043 4.97690387 9.76313043 2 9 C2.33 7.68 2.66 6.36 3 5 C3.66 5 4.32 5 5 5 C5 4.34 5 3.68 5 3 C3.68 3 2.36 3 1 3 C1 3.66 1 4.32 1 5 C0.01 4.67 -0.98 4.34 -2 4 C-1.34 2.68 -0.68 1.36 0 0 Z " fill="#98673A" transform="translate(79,38)"/>
<path d="M0 0 C0.66666667 1.33333333 1.33333333 2.66666667 2 4 C2.391875 4.598125 2.78375 5.19625 3.1875 5.8125 C4.40018799 9.07742922 3.61372059 11.59664038 3 15 C2.8009864 16.64448083 2.61360414 18.29040834 2.4375 19.9375 C2.35371094 20.70964844 2.26992187 21.48179688 2.18359375 22.27734375 C2.12300781 22.84582031 2.06242187 23.41429688 2 24 C1.67 24 1.34 24 1 24 C0.63436254 21.31362232 0.28225274 18.62657141 -0.0625 15.9375 C-0.16626953 15.18533203 -0.27003906 14.43316406 -0.37695312 13.65820312 C-0.98142216 8.84329458 -0.90611433 4.77135727 0 0 Z " fill="#5E4944" transform="translate(108,11)"/>
<path d="M0 0 C-0.33 1.32 -0.66 2.64 -1 4 C-3.31 3.67 -5.62 3.34 -8 3 C-7.01 2.67 -6.02 2.34 -5 2 C-5 1.34 -5 0.68 -5 0 C-9.32371893 2.02633069 -9.32371893 2.02633069 -13 5 C-15.125 4.625 -15.125 4.625 -17 4 C-17 3.01 -17 2.02 -17 1 C-4.83146067 -2.41573034 -4.83146067 -2.41573034 0 0 Z " fill="#9E5A29" transform="translate(107,56)"/>
<path d="M0 0 C0.66 0.33 1.32 0.66 2 1 C1.67 2.65 1.34 4.3 1 6 C2.093125 6.639375 3.18625 7.27875 4.3125 7.9375 C4.92738281 8.29714844 5.54226562 8.65679687 6.17578125 9.02734375 C8.13819555 10.13901247 8.13819555 10.13901247 11 11 C11 11.66 11 12.32 11 13 C10.34 13 9.68 13 9 13 C9.33 13.99 9.66 14.98 10 16 C9.34 16.99 8.68 17.98 8 19 C7.608125 18.113125 7.21625 17.22625 6.8125 16.3125 C4.31387034 11.7460389 1.30778378 8.87185586 -3 6 C-1.125 1.125 -1.125 1.125 0 0 Z " fill="#492922" transform="translate(111,112)"/>
<path d="M0 0 C1.32229189 2.64458379 1.09677194 4.67761301 1.0625 7.625 C1.05347656 8.62789062 1.04445313 9.63078125 1.03515625 10.6640625 C1.02355469 11.43492188 1.01195312 12.20578125 1 13 C1.66 13.33 2.32 13.66 3 14 C0.36 15.65 -2.28 17.3 -5 19 C-5.37503829 13.87447673 -4.14595604 10.62205916 -2 6 C-1.31163487 4.00736409 -0.63718601 2.00958663 0 0 Z " fill="#121417" transform="translate(40,94)"/>
<path d="M0 0 C0.66 0 1.32 0 2 0 C2 1.98 2 3.96 2 6 C4.31 6 6.62 6 9 6 C9 7.32 9 8.64 9 10 C5.7 10 2.4 10 -1 10 C-0.67 6.7 -0.34 3.4 0 0 Z " fill="#322D2B" transform="translate(112,41)"/>
<path d="M0 0 C0.33 0 0.66 0 1 0 C1.04898438 0.66386719 1.09796875 1.32773437 1.1484375 2.01171875 C1.71125812 8.7112236 1.71125812 8.7112236 4 15 C3.34 15 2.68 15 2 15 C1.67 15.66 1.34 16.32 1 17 C-2.0753663 13.02765186 -2.32551243 9.91676047 -2.30078125 5.0859375 C-2 3 -2 3 0 0 Z " fill="#291E1D" transform="translate(75,15)"/>
<path d="M0 0 C0.66 0 1.32 0 2 0 C3.33583899 4.84241633 4.25328119 8.93437617 4 14 C2.68 14.33 1.36 14.66 0 15 C0 10.05 0 5.1 0 0 Z " fill="#AE7069" transform="translate(77,11)"/>
<path d="M0 0 C2.83602371 0.39389218 4.64759392 0.72716949 6.9375 2.5 C9.56046587 4.40761154 11.81678862 4.63827143 15 5 C14.34 5.66 13.68 6.32 13 7 C8.04877357 6.66991824 3.61541407 5.91370827 -1 4 C-1.33 3.34 -1.66 2.68 -2 2 C-1.34 2 -0.68 2 0 2 C0 1.34 0 0.68 0 0 Z " fill="#141012" transform="translate(83,61)"/>
<path d="M0 0 C0.66 1.32 1.32 2.64 2 4 C3.65 4 5.3 4 7 4 C7.33 3.34 7.66 2.68 8 2 C8.66 2.33 9.32 2.66 10 3 C10 4.32 10 5.64 10 7 C7.48203847 8.58538318 6.32134414 9.0373656 3.3125 8.6875 C1 8 1 8 0 7 C-0.04092937 4.66702567 -0.04241723 2.33294775 0 0 Z " fill="#9E5223" transform="translate(89,46)"/>
<path d="M0 0 C0.66 0.33 1.32 0.66 2 1 C-1.50786057 5.18291278 -5.08135631 9.19020752 -9 13 C-9.66 13.66 -10.32 14.32 -11 15 C-11.33 12.69 -11.66 10.38 -12 8 C-10.95199219 7.51080078 -10.95199219 7.51080078 -9.8828125 7.01171875 C-8.97273438 6.57472656 -8.06265625 6.13773437 -7.125 5.6875 C-6.22007813 5.25824219 -5.31515625 4.82898438 -4.3828125 4.38671875 C-1.73550524 3.0800612 -1.73550524 3.0800612 0 0 Z " fill="#A2632C" transform="translate(88,111)"/>
<path d="M0 0 C0 1.98 0 3.96 0 6 C-1.8125 6.625 -1.8125 6.625 -4 7 C-4.99 6.34 -5.98 5.68 -7 5 C-7.1875 2.375 -7.1875 2.375 -7 0 C-4.3333581 -1.33332095 -2.83319697 -0.67102033 0 0 Z " fill="#BC5E1B" transform="translate(71,139)"/>
<path d="M0 0 C2.31 0.33 4.62 0.66 7 1 C7 2.32 7 3.64 7 5 C8.32 5.66 9.64 6.32 11 7 C11 7.66 11 8.32 11 9 C7.37 9 3.74 9 0 9 C-0.33 8.34 -0.66 7.68 -1 7 C0.32 6.67 1.64 6.34 3 6 C3 4.68 3 3.36 3 2 C2.01 1.67 1.02 1.34 0 1 C0 0.67 0 0.34 0 0 Z " fill="#471D0B" transform="translate(96,47)"/>
<path d="M0 0 C0 2.97 0 5.94 0 9 C-4.875 7.125 -4.875 7.125 -6 6 C-6.04063832 4.33382885 -6.042721 2.66611905 -6 1 C-3 0 -3 0 0 0 Z " fill="#AA571E" transform="translate(136,134)"/>
<path d="M0 0 C3.10495707 1.03498569 3.78649289 1.78649289 6 4 C8.09989652 5.17574711 8.09989652 5.17574711 10 6 C6.64695447 7.11768184 3.56051742 7.39673403 0.05859375 7.71875 C-2.05951997 7.8955836 -2.05951997 7.8955836 -4 9 C-3.71125 8.443125 -3.4225 7.88625 -3.125 7.3125 C-1.9586747 4.91505355 -0.9660119 2.48403061 0 0 Z " fill="#32150C" transform="translate(55,106)"/>
<path d="M0 0 C1 3 1 3 -0.07421875 5.33984375 C-0.60660156 6.19707031 -1.13898438 7.05429688 -1.6875 7.9375 C-2.20699219 8.79214844 -2.72648437 9.64679688 -3.26171875 10.52734375 C-4.99443425 12.99208287 -6.73667011 15.0132481 -9 17 C-9.66 17 -10.32 17 -11 17 C-10.8125 14.75 -10.8125 14.75 -10 12 C-8.33784732 10.66104368 -6.67036393 9.32869858 -5 8 C-3.16948013 5.42536636 -1.5645472 2.74295084 0 0 Z " fill="#262E33" transform="translate(109,93)"/>
<path d="M0 0 C3.70488428 0.92622107 5.16604069 1.67210485 8 4 C7.67 4.66 7.34 5.32 7 6 C5.68 5.67 4.36 5.34 3 5 C3 9.62 3 14.24 3 19 C2.67 19 2.34 19 2 19 C1.34 12.73 0.68 6.46 0 0 Z " fill="#493A38" transform="translate(74,6)"/>
<path d="M0 0 C0.99 0.33 1.98 0.66 3 1 C3 2.32 3 3.64 3 5 C3.99 5 4.98 5 6 5 C6.33 4.34 6.66 3.68 7 3 C7.33 4.65 7.66 6.3 8 8 C3.32798795 9.20568053 -1.21496292 9.09382426 -6 9 C-3 7 -3 7 1 7 C0.67 4.69 0.34 2.38 0 0 Z " fill="#4F2B1A" transform="translate(81,140)"/>
<path d="M0 0 C0.33 0 0.66 0 1 0 C1.268125 0.94875 1.53625 1.8975 1.8125 2.875 C2.74986588 6.25267273 2.74986588 6.25267273 6 8 C6 8.66 6 9.32 6 10 C3.69 10.33 1.38 10.66 -1 11 C-2.25 3.375 -2.25 3.375 0 0 Z " fill="#BA601A" transform="translate(117,108)"/>
<path d="M0 0 C0.66 0 1.32 0 2 0 C2.28571429 8.57142857 2.28571429 8.57142857 0 12 C-0.66 12 -1.32 12 -2 12 C-2.33 12.99 -2.66 13.98 -3 15 C-3.36263859 9.1977825 -2.25684543 5.36000789 0 0 Z " fill="#1B1D19" transform="translate(106,5)"/>
<path d="M0 0 C2.64 0 5.28 0 8 0 C8 0.33 8 0.66 8 1 C5.69 1 3.38 1 1 1 C0.95875 2.175625 0.9175 3.35125 0.875 4.5625 C0.2799094 9.54527356 -2.22036468 12.79182148 -6 16 C-6.66 16 -7.32 16 -8 16 C-8 15.34 -8 14.68 -8 14 C-7.175 13.236875 -6.35 12.47375 -5.5 11.6875 C-2.74632449 9.26268568 -2.74632449 9.26268568 -2.6875 6.1875 C-2.790625 5.465625 -2.89375 4.74375 -3 4 C-2.01 3.67 -1.02 3.34 0 3 C0 2.01 0 1.02 0 0 Z " fill="#626462" transform="translate(112,51)"/>
<path d="M0 0 C1.32 0 2.64 0 4 0 C3.67 1.98 3.34 3.96 3 6 C5.31 6.33 7.62 6.66 10 7 C10 7.66 10 8.32 10 9 C7.36 9 4.72 9 2 9 C2 8.34 2 7.68 2 7 C1.34 7 0.68 7 0 7 C-1.625 5.625 -1.625 5.625 -3 4 C-3 3.34 -3 2.68 -3 2 C-2.01 2 -1.02 2 0 2 C0 1.34 0 0.68 0 0 Z " fill="#0D1215" transform="translate(94,35)"/>
<path d="M0 0 C0 0.66 0 1.32 0 2 C0.99 2.33 1.98 2.66 3 3 C4.1875 6.5625 4.1875 6.5625 5 10 C3.491987 9.07544441 1.99375083 8.1349253 0.5 7.1875 C-0.3353125 6.66542969 -1.170625 6.14335938 -2.03125 5.60546875 C-3.00578125 4.81076172 -3.00578125 4.81076172 -4 4 C-4 3.01 -4 2.02 -4 1 C-2 0 -2 0 0 0 Z " fill="#2D261C" transform="translate(91,37)"/>
<path d="M0 0 C3.3 0 6.6 0 10 0 C10.33 0.99 10.66 1.98 11 3 C8.03 3 5.06 3 2 3 C1.34 4.98 0.68 6.96 0 9 C-0.66 8.67 -1.32 8.34 -2 8 C-1.34 5.36 -0.68 2.72 0 0 Z " fill="#7F4226" transform="translate(66,120)"/>
<path d="M0 0 C1.32 0.33 2.64 0.66 4 1 C2.35 2.65 0.7 4.3 -1 6 C-0.67 6.66 -0.34 7.32 0 8 C0.99 8.33 1.98 8.66 3 9 C2.67 9.99 2.34 10.98 2 12 C0.02 11.01 -1.96 10.02 -4 9 C-3.67 7.02 -3.34 5.04 -3 3 C-2.34 3 -1.68 3 -1 3 C-0.67 2.01 -0.34 1.02 0 0 Z " fill="#C4DCE6" transform="translate(73,44)"/>
<path d="M0 0 C1.1446875 0.1546875 1.1446875 0.1546875 2.3125 0.3125 C2.3125 0.9725 2.3125 1.6325 2.3125 2.3125 C1.136875 2.498125 1.136875 2.498125 -0.0625 2.6875 C-2.85472959 4.04411164 -2.85472959 4.04411164 -3.53515625 6.6015625 C-4.10333228 9.21291457 -4.61072765 11.63901576 -4.6875 14.3125 C-4.0275 14.9725 -3.3675 15.6325 -2.6875 16.3125 C-4.0075 15.9825 -5.3275 15.6525 -6.6875 15.3125 C-5.86363636 0.68181818 -5.86363636 0.68181818 0 0 Z " fill="#894C29" transform="translate(26.6875,121.6875)"/>
<path d="M0 0 C0.33 1.65 0.66 3.3 1 5 C0.34 5 -0.32 5 -1 5 C-1.33 4.01 -1.66 3.02 -2 2 C-2.66 2 -3.32 2 -4 2 C-4.33 3.32 -4.66 4.64 -5 6 C-5.33 5.01 -5.66 4.02 -6 3 C-8.01508358 2.26676204 -8.01508358 2.26676204 -10 2 C-10 1.34 -10 0.68 -10 0 C-6.30458414 -0.95024979 -3.69541586 -0.95024979 0 0 Z " fill="#AE7037" transform="translate(35,132)"/>
<path d="M0 0 C3.3 0.66 6.6 1.32 10 2 C10 2.66 10 3.32 10 4 C9.34 4 8.68 4 8 4 C8 4.66 8 5.32 8 6 C5.03 6 2.06 6 -1 6 C-1 5.34 -1 4.68 -1 4 C1.31 4 3.62 4 6 4 C4.02 3.01 2.04 2.02 0 1 C0 0.67 0 0.34 0 0 Z " fill="#27130B" transform="translate(58,108)"/>
<path d="M0 0 C0.33 0 0.66 0 1 0 C1 2.64 1 5.28 1 8 C-0.65 8.66 -2.3 9.32 -4 10 C-4 6 -4 6 -3 5 C-3 4.01 -3 3.02 -3 2 C-2.01 2 -1.02 2 0 2 C0 1.34 0 0.68 0 0 Z " fill="#44454B" transform="translate(107,28)"/>
<path d="M0 0 C0.66 0.33 1.32 0.66 2 1 C1.67 2.32 1.34 3.64 1 5 C1.99 5 2.98 5 4 5 C3.67 6.65 3.34 8.3 3 10 C-0.875 9.125 -0.875 9.125 -2 8 C-1.28 1.28 -1.28 1.28 0 0 Z " fill="#B75F1B" transform="translate(69,125)"/>
<path d="M0 0 C2.1640625 -0.29296875 2.1640625 -0.29296875 4.625 -0.1875 C5.44226563 -0.16042969 6.25953125 -0.13335937 7.1015625 -0.10546875 C8.04128906 -0.05326172 8.04128906 -0.05326172 9 0 C6.33788628 1.37579827 3.93703384 2.37063561 1 3 C0.7834375 4.670625 0.7834375 4.670625 0.5625 6.375 C0 10 0 10 -1 12 C-1.66 12 -2.32 12 -3 12 C-2.88541307 10.56163249 -2.75790884 9.12429034 -2.625 7.6875 C-2.55539063 6.88699219 -2.48578125 6.08648437 -2.4140625 5.26171875 C-2 3 -2 3 0 0 Z " fill="#A64B18" transform="translate(68,123)"/>
<path d="M0 0 C1.32 0 2.64 0 4 0 C4 3.3 4 6.6 4 10 C2.02 10 0.04 10 -2 10 C-1.67 9.34 -1.34 8.68 -1 8 C-0.01 8 0.98 8 2 8 C2 6.02 2 4.04 2 2 C1.34 2 0.68 2 0 2 C0 1.34 0 0.68 0 0 Z " fill="#B86F2B" transform="translate(69,137)"/>
<path d="M0 0 C3.63 0.66 7.26 1.32 11 2 C8 4 8 4 5 4 C5 4.66 5 5.32 5 6 C3.68 5.67 2.36 5.34 1 5 C0.67 3.35 0.34 1.7 0 0 Z " fill="#9B4515" transform="translate(125,131)"/>
<path d="M0 0 C1.12758089 3.38274266 0.81750262 4.76778223 0.0625 8.1875 C-0.13214844 9.08855469 -0.32679687 9.98960937 -0.52734375 10.91796875 C-0.68332031 11.60503906 -0.83929687 12.29210937 -1 13 C-1.99 13.33 -2.98 13.66 -4 14 C-3.85769192 12.58297487 -3.71099254 11.1663904 -3.5625 9.75 C-3.48128906 8.96109375 -3.40007813 8.1721875 -3.31640625 7.359375 C-3.02048007 5.15271556 -2.70573121 3.11251991 -2 1 C-1.34 0.67 -0.68 0.34 0 0 Z " fill="#54392F" transform="translate(21,124)"/>
<path d="M0 0 C0 1.65 0 3.3 0 5 C-1.8125 5.625 -1.8125 5.625 -4 6 C-4.99 5.34 -5.98 4.68 -7 4 C-7 3.34 -7 2.68 -7 2 C-4.35261084 0.5393715 -3.10551666 0 0 0 Z " fill="#B1672C" transform="translate(109,48)"/>
<path d="M0 0 C0 3.66666667 0 7.33333333 0 11 C-2.475 10.01 -2.475 10.01 -5 9 C-4.42647107 5.12867972 -2.51295648 2.91827204 0 0 Z " fill="#9C4D20" transform="translate(116,108)"/>
<path d="M0 0 C3.465 1.485 3.465 1.485 7 3 C7 3.99 7 4.98 7 6 C5.25 6.75 5.25 6.75 3 7 C0.75 5.0625 0.75 5.0625 -1 3 C-0.67 2.01 -0.34 1.02 0 0 Z " fill="#0F0C0E" transform="translate(78,56)"/>
<path d="M0 0 C1.32 0.33 2.64 0.66 4 1 C4 1.66 4 2.32 4 3 C4.99 3.33 5.98 3.66 7 4 C4 6 4 6 1 6 C0.67 6.66 0.34 7.32 0 8 C-0.66 7.34 -1.32 6.68 -2 6 C-1.34 6 -0.68 6 0 6 C0 4.02 0 2.04 0 0 Z " fill="#191C1C" transform="translate(82,20)"/>
<path d="M0 0 C0.66 0 1.32 0 2 0 C2.33 0.99 2.66 1.98 3 3 C3.66 3.66 4.32 4.32 5 5 C1.60535554 7.08901197 -1.04841529 7.34361606 -5 7 C-5.66 6.34 -6.32 5.68 -7 5 C-4.69 5 -2.38 5 0 5 C0 3.35 0 1.7 0 0 Z " fill="#351D14" transform="translate(73,143)"/>
<path d="M0 0 C1.32 0 2.64 0 4 0 C4 1.65 4 3.3 4 5 C2.35 5 0.7 5 -1 5 C-1 5.66 -1 6.32 -1 7 C-1.66 6.67 -2.32 6.34 -3 6 C-1.125 1.125 -1.125 1.125 0 0 Z " fill="#0A0505" transform="translate(78,127)"/>
<path d="M0 0 C2.78414422 3.48018027 5.00888425 7.0177685 7 11 C6.609375 13.21875 6.609375 13.21875 6 15 C4.80017556 13.07010782 3.61547182 11.13080772 2.4375 9.1875 C1.44556641 7.56908203 1.44556641 7.56908203 0.43359375 5.91796875 C-1 3 -1 3 0 0 Z " fill="#503827" transform="translate(129,116)"/>
<path d="M0 0 C0.7425 0.845625 1.485 1.69125 2.25 2.5625 C1.26 4.0475 1.26 4.0475 0.25 5.5625 C-0.08 4.2425 -0.41 2.9225 -0.75 1.5625 C-3.06 1.5625 -5.37 1.5625 -7.75 1.5625 C-6.75 -1.4375 -6.75 -1.4375 -5 -2.4375 C-2.75 -2.4375 -2.75 -2.4375 0 0 Z " fill="#6D3B26" transform="translate(88.75,53.4375)"/>
<path d="M0 0 C1.32 0.33 2.64 0.66 4 1 C4 2.32 4 3.64 4 5 C4.66 5 5.32 5 6 5 C6.66 3.68 7.32 2.36 8 1 C8 2.65 8 4.3 8 6 C6.02 6 4.04 6 2 6 C1.34 4.02 0.68 2.04 0 0 Z " fill="#94552A" transform="translate(74,141)"/>
<path d="M0 0 C0.66 0.66 1.32 1.32 2 2 C0.68 2.33 -0.64 2.66 -2 3 C-1.67 3.66 -1.34 4.32 -1 5 C-1.78375 5.28875 -2.5675 5.5775 -3.375 5.875 C-6.09671632 6.84912254 -6.09671632 6.84912254 -8 9 C-7.67 6.69 -7.34 4.38 -7 2 C-4.69 1.34 -2.38 0.68 0 0 Z " fill="#4C3429" transform="translate(39,117)"/>
<path d="M0 0 C4.455 2.97 4.455 2.97 9 6 C8.67 6.99 8.34 7.98 8 9 C6.65826597 8.07456291 5.32679841 7.13422595 4 6.1875 C3.2575 5.66542969 2.515 5.14335938 1.75 4.60546875 C1.1725 4.07566406 0.595 3.54585938 0 3 C0 2.01 0 1.02 0 0 Z " fill="#251109" transform="translate(120,109)"/>
<path d="M0 0 C2.22885515 3.82089454 3.16510643 7.68638323 4 12 C3.34 12.66 2.68 13.32 2 14 C-0.02613297 12.05828923 -0.94008689 10.57117167 -1.234375 7.765625 C-1.24889108 5.48660077 -1.2391075 3.26692305 -1 1 C-0.67 0.67 -0.34 0.34 0 0 Z " fill="#49585F" transform="translate(60,45)"/>
<path d="M0 0 C1.32 0 2.64 0 4 0 C4 0.66 4 1.32 4 2 C3.01 2.495 3.01 2.495 2 3 C1.67 3.99 1.34 4.98 1 6 C1.99 6.33 2.98 6.66 4 7 C2.68 7.33 1.36 7.66 0 8 C0 6.35 0 4.7 0 3 C-1.32 3.33 -2.64 3.66 -4 4 C-4.33 3.34 -4.66 2.68 -5 2 C-4.01 1.67 -3.02 1.34 -2 1 C-1.34 1.33 -0.68 1.66 0 2 C0 1.34 0 0.68 0 0 Z " fill="#4A3F30" transform="translate(80,41)"/>
<path d="M0 0 C0 1.98 0 3.96 0 6 C-1.98 6 -3.96 6 -6 6 C-5.75 4.125 -5.75 4.125 -5 2 C-1.8 0 -1.8 0 0 0 Z " fill="#BC5F20" transform="translate(30,124)"/>
<path d="M0 0 C0.66 0 1.32 0 2 0 C2.2475 0.928125 2.495 1.85625 2.75 2.8125 C4.09814716 6.25027527 5.08621743 6.9603522 8 9 C8 9.99 8 10.98 8 12 C7.34 12 6.68 12 6 12 C6 11.34 6 10.68 6 10 C5.38125 9.79375 4.7625 9.5875 4.125 9.375 C1.12977887 7.43691574 0.84488238 5.3795295 0 2 C0 1.34 0 0.68 0 0 Z " fill="#A15D31" transform="translate(117,106)"/>
<path d="M0 0 C-1.5625 2 -1.5625 2 -4 4 C-7.75 4.25 -7.75 4.25 -11 4 C-11.33 3.34 -11.66 2.68 -12 2 C-10.56656 1.46809459 -9.12804633 0.94984742 -7.6875 0.4375 C-6.48673828 0.00244141 -6.48673828 0.00244141 -5.26171875 -0.44140625 C-3 -1 -3 -1 0 0 Z " fill="#373938" transform="translate(106,72)"/>
<path d="M0 0 C0.33 0 0.66 0 1 0 C1.02698189 1.62490954 1.04638757 3.24994633 1.0625 4.875 C1.07410156 5.77992187 1.08570312 6.68484375 1.09765625 7.6171875 C1 10 1 10 0 12 C-0.66 12 -1.32 12 -2 12 C-2.05422947 10.5629191 -2.09289723 9.12524538 -2.125 7.6875 C-2.14820312 6.88699219 -2.17140625 6.08648437 -2.1953125 5.26171875 C-2 3 -2 3 0 0 Z " fill="#171C1D" transform="translate(68,71)"/>
<path d="M0 0 C1.65 0 3.3 0 5 0 C4.67 1.65 4.34 3.3 4 5 C5.32 5 6.64 5 8 5 C8 5.66 8 6.32 8 7 C5.625 7.125 5.625 7.125 3 7 C0.64046906 4.64046906 0.50858587 3.22104383 0 0 Z " fill="#5C5A57" transform="translate(85,30)"/>
<path d="M0 0 C0.99 0 1.98 0 3 0 C3.33 0.66 3.66 1.32 4 2 C6.52733235 2.65555119 6.52733235 2.65555119 9 3 C9 3.66 9 4.32 9 5 C8.34 5 7.68 5 7 5 C7 5.99 7 6.98 7 8 C6.34 8 5.68 8 5 8 C4.896875 7.360625 4.79375 6.72125 4.6875 6.0625 C4.3471875 5.0415625 4.3471875 5.0415625 4 4 C3.01 3.67 2.02 3.34 1 3 C0.67 2.01 0.34 1.02 0 0 Z " fill="#1B1A1A" transform="translate(96,29)"/>
<path d="M0 0 C0.91007813 0.10183594 1.82015625 0.20367187 2.7578125 0.30859375 C3.45648438 0.39238281 4.15515625 0.47617188 4.875 0.5625 C4.875 1.2225 4.875 1.8825 4.875 2.5625 C3.4379191 2.61672947 2.00024538 2.65539723 0.5625 2.6875 C-0.23800781 2.71070313 -1.03851563 2.73390625 -1.86328125 2.7578125 C-4.125 2.5625 -4.125 2.5625 -7.125 0.5625 C-4.50184968 -0.74907516 -2.89466564 -0.33399988 0 0 Z " fill="#38231C" transform="translate(131.125,143.4375)"/>
<path d="M0 0 C0.66 0.33 1.32 0.66 2 1 C1.7525 1.7425 1.505 2.485 1.25 3.25 C1.1675 4.1575 1.085 5.065 1 6 C2.83358335 8.33454661 2.83358335 8.33454661 5 10 C1.09161134 10 -0.11594107 8.49432124 -3 6 C-1.125 1.125 -1.125 1.125 0 0 Z " fill="#633C32" transform="translate(111,112)"/>
<path d="M0 0 C0.33 0.66 0.66 1.32 1 2 C-0.5625 4.5 -0.5625 4.5 -3 7 C-6.75 7.3125 -6.75 7.3125 -10 7 C-7 5 -7 5 -4 4 C-2.62804426 2.70644173 -1.28817344 1.37701298 0 0 Z " fill="#595B5C" transform="translate(106,71)"/>
<path d="M0 0 C1.32 0.33 2.64 0.66 4 1 C4 1.99 4 2.98 4 4 C1.35261084 5.4606285 0.10551666 6 -3 6 C-3 5.01 -3 4.02 -3 3 C-2.01 3 -1.02 3 0 3 C0 2.01 0 1.02 0 0 Z " fill="#2A3633" transform="translate(103,26)"/>
<path d="M0 0 C-3.28804981 2.91227269 -5.59885603 4.49701212 -10 5 C-6.58244111 0.23982869 -6.58244111 0.23982869 -3.875 -0.875 C-2 -1 -2 -1 0 0 Z " fill="#35251C" transform="translate(48,112)"/>
<path d="M0 0 C1.11375 0.9590625 1.11375 0.9590625 2.25 1.9375 C4.75342211 4.09297199 4.75342211 4.09297199 7.25 4.5625 C8.11625 4.7790625 8.11625 4.7790625 9 5 C9.33 5.99 9.66 6.98 10 8 C5.61999924 7.49942848 3.15830185 6.06806466 0 3 C0 2.01 0 1.02 0 0 Z " fill="#505152" transform="translate(80,66)"/>
<path d="M0 0 C2.31 0 4.62 0 7 0 C4 2 4 2 2 2 C2.57452746 5.93075644 2.57452746 5.93075644 5 9 C3.68 9 2.36 9 1 9 C0.67 6.03 0.34 3.06 0 0 Z " fill="#A34D19" transform="translate(62,137)"/>
<path d="M0 0 C0.99 0.33 1.98 0.66 3 1 C1.90081184 1.98475214 0.7954398 2.96260473 -0.3125 3.9375 C-0.92738281 4.48277344 -1.54226562 5.02804688 -2.17578125 5.58984375 C-4 7 -4 7 -7 8 C-6.67 6.68 -6.34 5.36 -6 4 C-4.68 4 -3.36 4 -2 4 C-2 3.01 -2 2.02 -2 1 C-1.34 0.67 -0.68 0.34 0 0 Z " fill="#38321F" transform="translate(87,110)"/>
<path d="M0 0 C0.99 0.33 1.98 0.66 3 1 C2.34 1.66 1.68 2.32 1 3 C1 4.32 1 5.64 1 7 C-1.31 6.67 -3.62 6.34 -6 6 C-4.68 5.67 -3.36 5.34 -2 5 C-1.855625 4.360625 -1.71125 3.72125 -1.5625 3.0625 C-1 1 -1 1 0 0 Z " fill="#2E1F18" transform="translate(109,111)"/>
<path d="M0 0 C0.99 0 1.98 0 3 0 C1.98823563 3.40320742 1.35156418 4.75725331 -1.625 6.8125 C-2.40875 7.204375 -3.1925 7.59625 -4 8 C-3.40353695 4.65980694 -2.31705841 2.49529367 0 0 Z " fill="#0A0D0F" transform="translate(106,73)"/>
<path d="M0 0 C0 0.99 0 1.98 0 3 C0.66 3.66 1.32 4.32 2 5 C-1.3 5 -4.6 5 -8 5 C-3.375 0 -3.375 0 0 0 Z " fill="#6E3616" transform="translate(102,56)"/>
<path d="M0 0 C0 0.66 0 1.32 0 2 C-1.65 2 -3.3 2 -5 2 C-5 3.65 -5 5.3 -5 7 C-5.99 6.67 -6.98 6.34 -8 6 C-6.15596224 0.86303767 -5.73213298 0 0 0 Z " fill="#C97924" transform="translate(77,124)"/>
<path d="M0 0 C0.99 0.33 1.98 0.66 3 1 C2.360625 1.598125 1.72125 2.19625 1.0625 2.8125 C-1.20310389 4.90810337 -1.20310389 4.90810337 -2 8 C-4.0625 9.1875 -4.0625 9.1875 -6 10 C-4.6302836 6.00499382 -2.74277578 3.19990508 0 0 Z " fill="#4F341D" transform="translate(82,119)"/>
<path d="M0 0 C-1.75 2.0625 -1.75 2.0625 -4 4 C-6.25 3.75 -6.25 3.75 -8 3 C-8 2.34 -8 1.68 -8 1 C-5.29120665 -0.35439668 -2.99066732 -0.06501451 0 0 Z " fill="#0D0F10" transform="translate(34,113)"/>
<path d="M0 0 C0.66 0.33 1.32 0.66 2 1 C2 2.98 2 4.96 2 7 C1.01 7.495 1.01 7.495 0 8 C-1.13350534 10.01669827 -1.13350534 10.01669827 -2 12 C-2.625 9.625 -2.625 9.625 -3 7 C-2.34 6.34 -1.68 5.68 -1 5 C-0.35232207 2.42938689 -0.35232207 2.42938689 0 0 Z " fill="#261109" transform="translate(110,47)"/>
<path d="M0 0 C0 0.99 0 1.98 0 3 C-1.98 3.33 -3.96 3.66 -6 4 C-6 2.68 -6 1.36 -6 0 C-3 -1 -3 -1 0 0 Z " fill="#151515" transform="translate(86,49)"/>
<path d="M0 0 C1.32 0 2.64 0 4 0 C4 1.65 4 3.3 4 5 C3.34 5 2.68 5 2 5 C1.34 5.99 0.68 6.98 0 8 C0 5.36 0 2.72 0 0 Z " fill="#B77237" transform="translate(107,39)"/>
<path d="M0 0 C2.66666667 0.66666667 5.33333333 1.33333333 8 2 C8 2.66 8 3.32 8 4 C7.34 4 6.68 4 6 4 C5.67 4.66 5.34 5.32 5 6 C5 5.34 5 4.68 5 4 C3.68 4.33 2.36 4.66 1 5 C0.67 4.34 0.34 3.68 0 3 C0.66 3 1.32 3 2 3 C2 2.34 2 1.68 2 1 C1.34 0.67 0.68 0.34 0 0 Z " fill="#201A1F" transform="translate(88,31)"/>
<path d="M0 0 C0.99 0 1.98 0 3 0 C3.66 2.31 4.32 4.62 5 7 C2.525 6.01 2.525 6.01 0 5 C0 3.35 0 1.7 0 0 Z " fill="#B46023" transform="translate(131,136)"/>
<path d="M0 0 C0.33 0 0.66 0 1 0 C1 4.62 1 9.24 1 14 C-0.32 13.34 -1.64 12.68 -3 12 C-2.34 11.01 -1.68 10.02 -1 9 C-0.54605448 6.72087062 -0.54605448 6.72087062 -0.375 4.3125 C-0.30023438 3.50425781 -0.22546875 2.69601563 -0.1484375 1.86328125 C-0.09945312 1.24839844 -0.05046875 0.63351563 0 0 Z " fill="#373D3C" transform="translate(127,100)"/>
<path d="M0 0 C0 0.99 0 1.98 0 3 C-0.66 3 -1.32 3 -2 3 C-2.33 3.66 -2.66 4.32 -3 5 C-4.65 3.35 -6.3 1.7 -8 0 C-4.71023192 -1.09658936 -3.28696233 -0.79953138 0 0 Z " fill="#343637" transform="translate(96,29)"/>
<path d="M0 0 C-0.375 1.9375 -0.375 1.9375 -1 4 C-1.99 4.495 -1.99 4.495 -3 5 C-3.99 4.67 -4.98 4.34 -6 4 C-6 3.01 -6 2.02 -6 1 C-3.92446352 0.4465236 -2.15634036 0 0 0 Z " fill="#EEEDE6" transform="translate(136,146)"/>
<path d="M0 0 C1.9955516 3.99110319 2.19546065 5.69986566 2 10 C1.01 9.67 0.02 9.34 -1 9 C-0.67 6.03 -0.34 3.06 0 0 Z " fill="#814522" transform="translate(61,136)"/>
<path d="M0 0 C1.98 0 3.96 0 6 0 C6.33 2.64 6.66 5.28 7 8 C6.401875 7.236875 5.80375 6.47375 5.1875 5.6875 C3.53040668 3.6516425 1.89702326 1.8021721 0 0 Z " fill="#C77D25" transform="translate(74,136)"/>
<path d="M0 0 C1.65 0 3.3 0 5 0 C4.67 2.97 4.34 5.94 4 9 C2.50596946 6.01193893 1.20689255 3.10343799 0 0 Z " fill="#7F7F7B" transform="translate(86,135)"/>
<path d="M0 0 C0 0.66 0 1.32 0 2 C-2.95664519 3.4783226 -5.74229737 3.06032783 -9 3 C-9 2.34 -9 1.68 -9 1 C-5.846632 0.29925156 -3.27275026 0 0 0 Z " fill="#515352" transform="translate(103,68)"/>
<path d="M0 0 C0.33 0 0.66 0 1 0 C1.33692785 1.60341555 1.66941093 3.20776555 2 4.8125 C2.185625 5.70582031 2.37125 6.59914063 2.5625 7.51953125 C3 10 3 10 3 13 C0.9375 11.5625 0.9375 11.5625 -1 9 C-1.05823431 5.92416977 -0.59222907 3.01264352 0 0 Z " fill="#5E5F5E" transform="translate(113,57)"/>
<path d="M0 0 C0.99 0.33 1.98 0.66 3 1 C4.1875 3.5625 4.1875 3.5625 5 6 C3.68 6.33 2.36 6.66 1 7 C0.67 4.69 0.34 2.38 0 0 Z " fill="#2E302D" transform="translate(77,59)"/>
<path d="M0 0 C-1.32 0.33 -2.64 0.66 -4 1 C-3.67 1.99 -3.34 2.98 -3 4 C-4.32 3.67 -5.64 3.34 -7 3 C-7.33 3.66 -7.66 4.32 -8 5 C-8.66 5 -9.32 5 -10 5 C-7.62417533 -0.26075462 -5.61350876 -0.1220328 0 0 Z " fill="#75A1AA" transform="translate(73,42)"/>
<path d="M0 0 C0 0.66 0 1.32 0 2 C-2.97 2.66 -5.94 3.32 -9 4 C-9 3.34 -9 2.68 -9 2 C-5.86501708 0.14223235 -3.62528568 -0.20140476 0 0 Z " fill="#1C252E" transform="translate(37,115)"/>
<path d="M0 0 C0.66 0 1.32 0 2 0 C2 0.66 2 1.32 2 2 C3.98 1.67 5.96 1.34 8 1 C5.60490662 3.89932357 3.68754757 4.50168276 0 5 C0 3.35 0 1.7 0 0 Z " fill="#3D3E40" transform="translate(48,81)"/>
<path d="M0 0 C3.40320742 1.01176437 4.75725331 1.64843582 6.8125 4.625 C7.204375 5.40875 7.59625 6.1925 8 7 C5.53199953 5.84826645 3.95216435 4.95216435 2 3 C1.01 3.495 1.01 3.495 0 4 C0 2.68 0 1.36 0 0 Z " fill="#3A3C3D" transform="translate(79,64)"/>
<path d="M0 0 C0.99 0 1.98 0 3 0 C2.67 1.32 2.34 2.64 2 4 C-0.31 3.67 -2.62 3.34 -5 3 C-4.360625 2.690625 -3.72125 2.38125 -3.0625 2.0625 C-1.06389179 1.1654837 -1.06389179 1.1654837 0 0 Z " fill="#A76B30" transform="translate(104,56)"/>
<path d="M0 0 C0.66 0 1.32 0 2 0 C2 0.66 2 1.32 2 2 C3.32 2.33 4.64 2.66 6 3 C6 3.66 6 4.32 6 5 C3.625 5.1875 3.625 5.1875 1 5 C0.34 4.01 -0.32 3.02 -1 2 C-0.67 1.34 -0.34 0.68 0 0 Z " fill="#E1F0F3" transform="translate(72,48)"/>
<path d="M0 0 C3.625 -0.1875 3.625 -0.1875 7 0 C7 0.66 7 1.32 7 2 C2.545 2.495 2.545 2.495 -2 3 C-1.34 2.01 -0.68 1.02 0 0 Z " fill="#86450E" transform="translate(67,134)"/>
<path d="M0 0 C0.66 0.33 1.32 0.66 2 1 C0.02 3.31 -1.96 5.62 -4 8 C-4.99 7.34 -5.98 6.68 -7 6 C-6.21625 5.566875 -5.4325 5.13375 -4.625 4.6875 C-1.78301625 3.10779753 -1.78301625 3.10779753 0 0 Z " fill="#71563B" transform="translate(88,111)"/>
<path d="M0 0 C1.67542976 0.28604898 3.34385343 0.61781233 5 1 C5 2.32 5 3.64 5 5 C4.34 5 3.68 5 3 5 C3 4.34 3 3.68 3 3 C1.68 2.34 0.36 1.68 -1 1 C-0.67 0.67 -0.34 0.34 0 0 Z " fill="#C6C8C8" transform="translate(53,113)"/>
<path d="M0 0 C3.0831351 1.19899698 6.06279492 2.47700477 9 4 C5.23375329 5.25541557 3.62811066 4.37061958 0 3 C0 2.01 0 1.02 0 0 Z " fill="#795139" transform="translate(56,108)"/>
<path d="M0 0 C1.32 0 2.64 0 4 0 C4.33 1.32 4.66 2.64 5 4 C3.35 4 1.7 4 0 4 C0 2.68 0 1.36 0 0 Z " fill="#173835" transform="translate(86,105)"/>
<path d="M0 0 C1.65 0 3.3 0 5 0 C5 0.66 5 1.32 5 2 C6.65 2.33 8.3 2.66 10 3 C10 3.33 10 3.66 10 4 C6.6875 4.25 6.6875 4.25 3 4 C1.0625 2 1.0625 2 0 0 Z " fill="#282627" transform="translate(88,77)"/>
<path d="M0 0 C1.875 0.3125 1.875 0.3125 4 1 C4.66 1.99 5.32 2.98 6 4 C5.67 4.99 5.34 5.98 5 7 C4.34 6.01 3.68 5.02 3 4 C2.01 3.67 1.02 3.34 0 3 C0 2.01 0 1.02 0 0 Z " fill="#C1BEB5" transform="translate(81,44)"/>
<path d="M0 0 C-3.63423209 2.32590854 -6.77088331 2.16265833 -11 2 C-11 1.67 -11 1.34 -11 1 C-6.87831311 -0.62950412 -4.29299643 -1.26264601 0 0 Z " fill="#060709" transform="translate(101,114)"/>
<path d="M0 0 C1.98 0.495 1.98 0.495 4 1 C4 1.99 4 2.98 4 4 C2.35 4.33 0.7 4.66 -1 5 C-0.67 3.35 -0.34 1.7 0 0 Z " fill="#1B2D35" transform="translate(44,107)"/>
<path d="M0 0 C1.98 0.66 3.96 1.32 6 2 C5.67 2.66 5.34 3.32 5 4 C2.9375 4.625 2.9375 4.625 1 5 C0.34 3.68 -0.32 2.36 -1 1 C-0.67 0.67 -0.34 0.34 0 0 Z " fill="#2B2D31" transform="translate(85,65)"/>
<path d="M0 0 C1.65 1.65 3.3 3.3 5 5 C2.625 5.1875 2.625 5.1875 0 5 C-0.66 4.01 -1.32 3.02 -2 2 C-1.34 2 -0.68 2 0 2 C0 1.34 0 0.68 0 0 Z " fill="#242217" transform="translate(83,61)"/>
<path d="M0 0 C2.475 0.495 2.475 0.495 5 1 C5.33 1.99 5.66 2.98 6 4 C4.02 4 2.04 4 0 4 C0 2.68 0 1.36 0 0 Z " fill="#2F2328" transform="translate(64,60)"/>
<path d="M0 0 C2.86724686 0.57344937 3.8614515 0.8614515 6 3 C6 3.99 6 4.98 6 6 C5.01 6 4.02 6 3 6 C2.87625 5.195625 2.7525 4.39125 2.625 3.5625 C2.315625 2.2940625 2.315625 2.2940625 2 1 C1.34 0.67 0.68 0.34 0 0 Z " fill="#BB8127" transform="translate(89,43)"/>
<path d="M0 0 C-2 2 -2 2 -4.1640625 2.1953125 C-5.38222656 2.16050781 -5.38222656 2.16050781 -6.625 2.125 C-7.44226563 2.10695312 -8.25953125 2.08890625 -9.1015625 2.0703125 C-9.72804688 2.04710937 -10.35453125 2.02390625 -11 2 C-11 1.34 -11 0.68 -11 0 C-3.375 -1.125 -3.375 -1.125 0 0 Z " fill="#241306" transform="translate(89,37)"/>
<path d="M0 0 C2.4294516 3.6441774 2.16179575 5.71241272 2 10 C0.4375 8.9375 0.4375 8.9375 -1 7 C-0.6875 3.3125 -0.6875 3.3125 0 0 Z " fill="#25110F" transform="translate(106,15)"/>
</svg>
