<?xml version="1.0" encoding="UTF-8"?>
<svg version="1.1" xmlns="http://www.w3.org/2000/svg" width="136" height="123">
<path d="M0 0 C44.88 0 89.76 0 136 0 C136 40.59 136 81.18 136 123 C91.12 123 46.24 123 0 123 C0 82.41 0 41.82 0 0 Z " fill="#F4F4F4" transform="translate(0,0)"/>
<path d="M0 0 C7.33974334 5.39375951 13.78373107 11.5326507 15.671875 20.74609375 C17.11897928 30.68632198 15.50362542 37.49550156 10 46 C5.16062038 52.27201648 -1.18931561 56.44357477 -9 58 C-18.69496434 59.06375303 -25.92067323 57.54417145 -34 52 C-40.57772297 46.4433676 -44.43664424 39.31987089 -45.34375 30.75390625 C-45.6098234 21.1641776 -43.76354343 14.40696046 -37.80078125 6.890625 C-27.94610954 -3.45571146 -12.90828424 -6.3542328 0 0 Z " fill="#F3F2EF" transform="translate(81,34)"/>
<path d="M0 0 C0.68964844 0.13019531 1.37929687 0.26039062 2.08984375 0.39453125 C2.40234375 2.5625 2.40234375 2.5625 2.08984375 5.39453125 C-0.09765625 8.0703125 -0.09765625 8.0703125 -2.91015625 10.70703125 C-4.30234375 12.03154297 -4.30234375 12.03154297 -5.72265625 13.3828125 C-6.44453125 14.04667969 -7.16640625 14.71054687 -7.91015625 15.39453125 C-4.06007465 11.77313635 -1.77640516 10.90417582 3.484375 11.00390625 C4.68642578 11.01679687 5.88847656 11.0296875 7.12695312 11.04296875 C8.37283203 11.07648437 9.61871094 11.11 10.90234375 11.14453125 C12.16755859 11.16257812 13.43277344 11.180625 14.73632812 11.19921875 C17.8549371 11.24629209 20.97200348 11.31204031 24.08984375 11.39453125 C24.08984375 12.71453125 24.08984375 14.03453125 24.08984375 15.39453125 C24.17234375 16.54953125 24.25484375 17.70453125 24.33984375 18.89453125 C24.08984375 22.39453125 24.08984375 22.39453125 22.58984375 24.83203125 C18.95337914 27.10482163 16.3320184 26.67734289 12.08984375 26.39453125 C12.18523437 27.09320313 12.280625 27.791875 12.37890625 28.51171875 C12.48976562 29.42179687 12.600625 30.331875 12.71484375 31.26953125 C12.83085938 32.17445312 12.946875 33.079375 13.06640625 34.01171875 C13.07800781 35.19121094 13.07800781 35.19121094 13.08984375 36.39453125 C10.2367568 39.2476182 7.38690243 38.73729649 3.5625 38.765625 C2.81777939 38.77465347 2.07305878 38.78368195 1.30577087 38.79298401 C-0.27031424 38.80749916 -1.84645979 38.8163764 -3.42260742 38.82006836 C-5.83550345 38.8319713 -8.24584685 38.881142 -10.65820312 38.93164062 C-12.18878958 38.94110408 -13.71939177 38.94833949 -15.25 38.953125 C-16.3329258 38.98242348 -16.3329258 38.98242348 -17.43772888 39.01231384 C-19.48022461 38.99389648 -19.48022461 38.99389648 -22.91015625 38.39453125 C-24.78344727 35.95336914 -24.78344727 35.95336914 -25.91015625 33.39453125 C-26.46703125 32.89953125 -27.02390625 32.40453125 -27.59765625 31.89453125 C-28.91015625 30.39453125 -28.91015625 30.39453125 -29.3125 28.109375 C-28.72753542 24.16228388 -26.79791843 23.00961957 -23.78515625 20.45703125 C-22.68420954 19.50770893 -21.58670362 18.55438556 -20.4921875 17.59765625 C-19.91033691 17.08912109 -19.32848633 16.58058594 -18.72900391 16.05664062 C-16.79843386 14.29243648 -14.98269712 12.45309159 -13.171875 10.56640625 C-12.55521973 9.92566162 -11.93856445 9.28491699 -11.30322266 8.62475586 C-10.09945444 7.36367299 -8.90478598 6.09382946 -7.72021484 4.81469727 C-3.54295504 0.48032008 -3.54295504 0.48032008 0 0 Z " fill="#F4E7DD" transform="translate(68.91015625,40.60546875)"/>
<path d="M0 0 C0.33 0.99 0.66 1.98 1 3 C2.32 3 3.64 3 5 3 C5 3.66 5 4.32 5 5 C5.53625 4.505 6.0725 4.01 6.625 3.5 C9.66673285 1.57890557 11.46049143 1.54814784 15 2 C16.875 3.1875 16.875 3.1875 18 5 C18.1875 7.6875 18.1875 7.6875 18 10 C15.03 10 12.06 10 9 10 C9.495 10.99 9.495 10.99 10 12 C12.64 12 15.28 12 18 12 C18.66 9.03 19.32 6.06 20 3 C21.98 3 23.96 3 26 3 C25.27683594 3.58587891 25.27683594 3.58587891 24.5390625 4.18359375 C22.55499294 6.52519868 22.54476411 8.02908343 22.375 11.0625 C22.08040201 15.83919598 22.08040201 15.83919598 21 18 C20.34 18 19.68 18 19 18 C21.20719201 21.31078802 22.09221177 21.64844765 25.625 23.125 C33.77555057 27.07071451 39.39730609 33.64225502 42.375 42.203125 C44.50720334 51.74473496 43.70140932 61.38074958 39 70 C33.6330369 77.92678191 26.9634925 82.01216917 18 85 C6.62774689 85.84958134 -2.0822965 85.66213428 -11.23828125 78.16796875 C-18.97252973 70.99929603 -22.92937774 62.26360172 -23.375 51.6875 C-23.11867787 41.81235263 -19.10238472 35.24032349 -12.375 28.203125 C-7.88329695 24.0364794 -3.26429092 20.58727727 3 20 C3.33 18.68 3.66 17.36 4 16 C3.236875 16.226875 2.47375 16.45375 1.6875 16.6875 C-1 17 -1 17 -2.75 15.75 C-4 14 -4 14 -5 11 C-7.01508358 10.26676204 -7.01508358 10.26676204 -9 10 C-10.32 11.65 -11.64 13.3 -13 15 C-13.99 14.67 -14.98 14.34 -16 14 C-15.195625 13.1646875 -15.195625 13.1646875 -14.375 12.3125 C-13.92125 11.549375 -13.4675 10.78625 -13 10 C-13.66096786 7.34754398 -13.66096786 7.34754398 -15 5 C-15.33 4.34 -15.66 3.68 -16 3 C-13.03824877 3.61277612 -11.61941217 4.25372522 -9 6 C-8.34 4.68 -7.68 3.36 -7 2 C-4.03 2.495 -4.03 2.495 -1 3 C-0.67 2.01 -0.34 1.02 0 0 Z M-14 33 C-19.73951372 41.47329706 -20.82172273 48.82237709 -20 59 C-18.03911527 67.4459794 -13.45278025 73.94442645 -6.3359375 78.828125 C1.91651671 83.4878221 9.52918341 84.56507728 18.76171875 82.33203125 C28.04594521 79.07615398 34.59730802 72.70299578 39 64 C42.42529886 56.56049124 41.82023994 48.1607367 39.23828125 40.48828125 C34.86696611 31.70428206 27.65899093 26.13546828 18.6875 22.75 C6.22731286 20.21572465 -5.51024399 23.14341253 -14 33 Z " fill="#DC744A" transform="translate(56,9)"/>
<path d="M0 0 C2.18945312 0.33886719 2.18945312 0.33886719 4 1 C3.42066163 4.48943641 2.25384141 6.09632564 -0.2734375 8.53125 C-1.2634375 9.49998047 -1.2634375 9.49998047 -2.2734375 10.48828125 C-2.96695313 11.15214844 -3.66046875 11.81601562 -4.375 12.5 C-5.73920963 13.82061646 -7.10126329 15.14346444 -8.4609375 16.46875 C-9.37045166 17.34176758 -9.37045166 17.34176758 -10.29833984 18.23242188 C-13.42136021 21.47642008 -14.88666058 23.5466423 -16 28 C-6.1 28 3.8 28 14 28 C14 28.99 14 29.98 14 31 C14.66 31 15.32 31 16 31 C16.125 33.375 16.125 33.375 16 36 C13.14691305 38.85308695 10.29705868 38.34276524 6.47265625 38.37109375 C5.72793564 38.38012222 4.98321503 38.3891507 4.21592712 38.39845276 C2.63984201 38.41296791 1.06369646 38.42184515 -0.51245117 38.42553711 C-2.9253472 38.43744005 -5.3356906 38.48661075 -7.74804688 38.53710938 C-9.27863333 38.54657283 -10.80923552 38.55380824 -12.33984375 38.55859375 C-13.42276955 38.58789223 -13.42276955 38.58789223 -14.52757263 38.61778259 C-16.57006836 38.59936523 -16.57006836 38.59936523 -20 38 C-21.87329102 35.55883789 -21.87329102 35.55883789 -23 33 C-23.556875 32.505 -24.11375 32.01 -24.6875 31.5 C-26 30 -26 30 -26.40234375 27.71484375 C-25.81737917 23.76775263 -23.88776218 22.61508832 -20.875 20.0625 C-19.77534203 19.11449595 -18.67913993 18.16247239 -17.5859375 17.20703125 C-17.00424805 16.69865723 -16.42255859 16.1902832 -15.82324219 15.66650391 C-13.87919624 13.88958135 -12.05060313 12.03640867 -10.2265625 10.13671875 C-9.60539551 9.4914624 -8.98422852 8.84620605 -8.34423828 8.18139648 C-7.12754689 6.90720458 -5.91992572 5.62428132 -4.72216797 4.33227539 C-3.03125 2.578125 -3.03125 2.578125 0 0 Z " fill="#D87B54" transform="translate(66,41)"/>
<path d="M0 0 C0.33 0.99 0.66 1.98 1 3 C2.32 3 3.64 3 5 3 C5 3.66 5 4.32 5 5 C5.53625 4.505 6.0725 4.01 6.625 3.5 C9.66673285 1.57890557 11.46049143 1.54814784 15 2 C16.875 3.1875 16.875 3.1875 18 5 C18.1875 7.6875 18.1875 7.6875 18 10 C15.03 10 12.06 10 9 10 C9.33 10.66 9.66 11.32 10 12 C12.64 12 15.28 12 18 12 C18.66 9.03 19.32 6.06 20 3 C21.98 3 23.96 3 26 3 C25.27683594 3.58587891 25.27683594 3.58587891 24.5390625 4.18359375 C22.55499294 6.52519868 22.54476411 8.02908343 22.375 11.0625 C22.08040201 15.83919598 22.08040201 15.83919598 21 18 C20.34 18 19.68 18 19 18 C19.495 19.485 19.495 19.485 20 21 C14.39 20.67 8.78 20.34 3 20 C3.33 18.68 3.66 17.36 4 16 C3.236875 16.226875 2.47375 16.45375 1.6875 16.6875 C-1 17 -1 17 -2.75 15.75 C-4 14 -4 14 -5 11 C-7.01508358 10.26676204 -7.01508358 10.26676204 -9 10 C-10.32 11.65 -11.64 13.3 -13 15 C-13.99 14.67 -14.98 14.34 -16 14 C-15.195625 13.1646875 -15.195625 13.1646875 -14.375 12.3125 C-13.92125 11.549375 -13.4675 10.78625 -13 10 C-13.66096786 7.34754398 -13.66096786 7.34754398 -15 5 C-15.33 4.34 -15.66 3.68 -16 3 C-13.03824877 3.61277612 -11.61941217 4.25372522 -9 6 C-8.34 4.68 -7.68 3.36 -7 2 C-4.03 2.495 -4.03 2.495 -1 3 C-0.67 2.01 -0.34 1.02 0 0 Z " fill="#E3E3E4" transform="translate(56,9)"/>
<path d="M0 0 C1.12067871 0.01047363 2.24135742 0.02094727 3.39599609 0.03173828 C5.21357422 0.04140625 5.21357422 0.04140625 7.06787109 0.05126953 C8.33888672 0.06802734 9.60990234 0.08478516 10.91943359 0.10205078 C12.19818359 0.11107422 13.47693359 0.12009766 14.79443359 0.12939453 C17.96128526 0.15302775 21.12776783 0.18597449 24.29443359 0.22705078 C24.29443359 2.56038411 24.29443359 4.89371745 24.29443359 7.22705078 C15.71443359 7.22705078 7.13443359 7.22705078 -1.70556641 7.22705078 C-2.03556641 7.88705078 -2.36556641 8.54705078 -2.70556641 9.22705078 C4.88443359 9.22705078 12.47443359 9.22705078 20.29443359 9.22705078 C20.29443359 9.55705078 20.29443359 9.88705078 20.29443359 10.22705078 C9.40443359 10.72205078 9.40443359 10.72205078 -1.70556641 11.22705078 C-2.03556641 11.88705078 -2.36556641 12.54705078 -2.70556641 13.22705078 C4.55443359 13.22705078 11.81443359 13.22705078 19.29443359 13.22705078 C19.29443359 13.55705078 19.29443359 13.88705078 19.29443359 14.22705078 C10.71443359 14.22705078 2.13443359 14.22705078 -6.70556641 14.22705078 C-6.04556641 12.90705078 -5.38556641 11.58705078 -4.70556641 10.22705078 C-5.36556641 9.89705078 -6.02556641 9.56705078 -6.70556641 9.22705078 C-6.04556641 8.23705078 -5.38556641 7.24705078 -4.70556641 6.22705078 C-5.36556641 6.22705078 -6.02556641 6.22705078 -6.70556641 6.22705078 C-3.954477 0.3318592 -3.954477 0.3318592 0 0 Z " fill="#DA693D" transform="translate(68.70556640625,51.77294921875)"/>
<path d="M0 0 C3.77076889 -0.05799124 7.54142334 -0.09359306 11.3125 -0.125 C12.38435547 -0.14175781 13.45621094 -0.15851562 14.56054688 -0.17578125 C15.58857422 -0.18222656 16.61660156 -0.18867187 17.67578125 -0.1953125 C18.62364502 -0.20578613 19.57150879 -0.21625977 20.5480957 -0.22705078 C23 0 23 0 26 2 C25.43375878 5.28419908 24.68913257 6.98573114 22 9 C19.1809082 9.34057617 19.1809082 9.34057617 15.80078125 9.29296875 C14.59228516 9.28330078 13.38378906 9.27363281 12.13867188 9.26367188 C10.87603516 9.23853516 9.61339844 9.21339844 8.3125 9.1875 C6.40114258 9.16719727 6.40114258 9.16719727 4.45117188 9.14648438 C1.30035943 9.11108199 -1.84961045 9.0616979 -5 9 C-3.68 8.34 -2.36 7.68 -1 7 C-1 5.68 -1 4.36 -1 3 C-0.67 2.01 -0.34 1.02 0 0 Z " fill="#EAB6A0" transform="translate(67,58)"/>
<path d="M0 0 C0.33 0.99 0.66 1.98 1 3 C1.99 3.33 2.98 3.66 4 4 C3.01 4 2.02 4 1 4 C1 6.97 1 9.94 1 13 C2.32 13 3.64 13 5 13 C4.67 13.99 4.34 14.98 4 16 C1.6875 16.6875 1.6875 16.6875 -1 17 C-3.53844009 15.18682851 -3.99489025 14.01532925 -5 11 C-7.01508358 10.26676204 -7.01508358 10.26676204 -9 10 C-10.32 11.65 -11.64 13.3 -13 15 C-13.99 14.67 -14.98 14.34 -16 14 C-15.195625 13.1646875 -15.195625 13.1646875 -14.375 12.3125 C-13.92125 11.549375 -13.4675 10.78625 -13 10 C-13.66096786 7.34754398 -13.66096786 7.34754398 -15 5 C-15.33 4.34 -15.66 3.68 -16 3 C-13.03824877 3.61277612 -11.61941217 4.25372522 -9 6 C-8.34 4.68 -7.68 3.36 -7 2 C-4.03 2.495 -4.03 2.495 -1 3 C-0.67 2.01 -0.34 1.02 0 0 Z " fill="#E5E1DF" transform="translate(56,9)"/>
<path d="M0 0 C0.33 0 0.66 0 1 0 C1.15855469 0.89460938 1.31710938 1.78921875 1.48046875 2.7109375 C3.40931017 12.70681182 5.54945044 22.37797999 14.09375 28.75 C14.7228125 29.1625 15.351875 29.575 16 30 C16.5878125 30.4125 17.175625 30.825 17.78125 31.25 C25.59694524 35.71611156 35.31837213 34.31794365 44 34 C43.505 34.99 43.505 34.99 43 36 C35.46344673 38.51218442 24.68805387 38.37603915 17.4375 35 C8.6421494 29.68083567 3.21777443 22.65332329 0 13 C-0.06937062 10.77181559 -0.08457084 8.54165476 -0.0625 6.3125 C-0.05347656 5.13300781 -0.04445312 3.95351563 -0.03515625 2.73828125 C-0.02355469 1.83464844 -0.01195312 0.93101563 0 0 Z " fill="#DC7046" transform="translate(34,57)"/>
<path d="M0 0 C2 2 2 2 2.25 5.4375 C2 9 2 9 0 12 C-1.875 12.3984375 -1.875 12.3984375 -4 12.375 C-4.70125 12.38273437 -5.4025 12.39046875 -6.125 12.3984375 C-8 12 -8 12 -10 9 C-10.53507194 3.00719424 -10.53507194 3.00719424 -8.9375 0 C-5.80557344 -1.61647822 -3.32814714 -0.78665296 0 0 Z " fill="#373737" transform="translate(102,12)"/>
<path d="M0 0 C2 1.125 2 1.125 3 3 C2.875 6.0625 2.875 6.0625 2 9 C-1 11 -1 11 -4.5625 10.75 C-8 10 -8 10 -10 8 C-10.35571424 5.22542896 -10.36405327 3.62103204 -8.9375 1.1875 C-5.90624457 -0.67036623 -3.46577141 -0.37133265 0 0 Z " fill="#9D9D9D" transform="translate(55,100)"/>
<path d="M0 0 C0 0.66 0 1.32 0 2 C-0.71285156 2.21914063 -1.42570312 2.43828125 -2.16015625 2.6640625 C-11.4560373 5.74183738 -17.40147623 9.55155561 -22.01171875 18.3515625 C-23.57977704 22.5537108 -24.01887562 26.83095921 -24.4453125 31.27734375 C-25 34 -25 34 -28 36 C-28.73461747 25.26642256 -26.80823929 17.9282077 -19.75 9.6875 C-14.68030789 4.36683304 -7.82566774 -2.4286555 0 0 Z " fill="#DF7D56" transform="translate(61,30)"/>
<path d="M0 0 C1.12591553 0.00523682 2.25183105 0.01047363 3.41186523 0.01586914 C4.62680664 0.0190918 5.84174805 0.02231445 7.09350586 0.02563477 C8.37290039 0.03401367 9.65229492 0.04239258 10.97045898 0.05102539 C12.2537207 0.05553711 13.53698242 0.06004883 14.85913086 0.06469727 C18.04211921 0.07652994 21.22501661 0.09301471 24.40795898 0.11352539 C24.40795898 4.11352539 24.40795898 4.11352539 23.40795898 7.11352539 C23.40795898 6.45352539 23.40795898 5.79352539 23.40795898 5.11352539 C15.15795898 4.78352539 6.90795898 4.45352539 -1.59204102 4.11352539 C-1.59204102 3.45352539 -1.59204102 2.79352539 -1.59204102 2.11352539 C-2.25204102 1.78352539 -2.91204102 1.45352539 -3.59204102 1.11352539 C-2.59204102 0.11352539 -2.59204102 0.11352539 0 0 Z " fill="#E4A083" transform="translate(68.592041015625,51.886474609375)"/>
<path d="M0 0 C3 0.4375 3 0.4375 4.875 1.625 C6.34781139 3.99786279 6.22223194 5.69663944 6 8.4375 C3.03 8.4375 0.06 8.4375 -3 8.4375 C-2.67 9.0975 -2.34 9.7575 -2 10.4375 C0.32156597 10.84479228 2.6568787 11.18188677 5 11.4375 C5 12.0975 5 12.7575 5 13.4375 C-2.35678392 13.79930905 -2.35678392 13.79930905 -5 12.3125 C-6.48549091 9.52720454 -6.38050713 7.54497489 -6 4.4375 C-4.41772744 1.09714683 -3.69347195 0.53863133 0 0 Z " fill="#4F4F50" transform="translate(68,10.5625)"/>
<path d="M0 0 C2 3 2 3 2 7 C-0.97 7 -3.94 7 -7 7 C-6.67 7.66 -6.34 8.32 -6 9 C-3.69 9 -1.38 9 1 9 C0.67 9.99 0.34 10.98 0 12 C-6.34507042 12.35915493 -6.34507042 12.35915493 -8.9375 10.9375 C-10.6140629 7.88023824 -10.36528977 5.4093712 -10 2 C-7.71139092 -2.30797003 -4.19123206 -1.06685907 0 0 Z " fill="#414141" transform="translate(37,12)"/>
<path d="M0 0 C11.22 0 22.44 0 34 0 C34 0.99 34 1.98 34 3 C22.78 3 11.56 3 0 3 C0 2.01 0 1.02 0 0 Z " fill="#F5EEE6" transform="translate(46,74)"/>
<path d="M0 0 C1.25361328 0.00966797 2.50722656 0.01933594 3.79882812 0.02929688 C5.10916016 0.05443359 6.41949219 0.07957031 7.76953125 0.10546875 C9.10480288 0.12051908 10.44009062 0.13420688 11.77539062 0.14648438 C15.04467701 0.18189181 18.31315218 0.23127985 21.58203125 0.29296875 C21.58203125 0.62296875 21.58203125 0.95296875 21.58203125 1.29296875 C8.21703125 1.78796875 8.21703125 1.78796875 -5.41796875 2.29296875 C8.44203125 2.78796875 8.44203125 2.78796875 22.58203125 3.29296875 C22.58203125 3.62296875 22.58203125 3.95296875 22.58203125 4.29296875 C16.70038085 5.64333049 10.90144351 5.47707693 4.89453125 5.48046875 C3.16493164 5.49883789 3.16493164 5.49883789 1.40039062 5.51757812 C0.30146484 5.51951172 -0.79746094 5.52144531 -1.9296875 5.5234375 C-2.93475342 5.52754639 -3.93981934 5.53165527 -4.9753418 5.53588867 C-7.41796875 5.29296875 -7.41796875 5.29296875 -9.41796875 3.29296875 C-6.74626226 -0.30947219 -4.30105459 -0.05838536 0 0 Z " fill="#D77752" transform="translate(55.41796875,68.70703125)"/>
<path d="M0 0 C0 0.99 0 1.98 0 3 C0.66 3 1.32 3 2 3 C2 4.65 2 6.3 2 8 C1.01 8 0.02 8 -1 8 C-0.67 7.01 -0.34 6.02 0 5 C-2.31 5 -4.62 5 -7 5 C-7 4.67 -7 4.34 -7 4 C-14.92 3.67 -22.84 3.34 -31 3 C-30.67 2.34 -30.34 1.68 -30 1 C-25.5625336 0.83243072 -21.12502168 0.66609843 -16.6875 0.5 C-15.42486328 0.45230469 -14.16222656 0.40460938 -12.86132812 0.35546875 C-11.65283203 0.31035156 -10.44433594 0.26523438 -9.19921875 0.21875 C-8.08377686 0.17685547 -6.96833496 0.13496094 -5.8190918 0.09179688 C-3.88018086 0.02866095 -1.9399386 0 0 0 Z " fill="#E7B197" transform="translate(80,69)"/>
<path d="M0 0 C1.98 0 3.96 0 6 0 C5.27683594 0.58587891 5.27683594 0.58587891 4.5390625 1.18359375 C2.55499294 3.52519868 2.54476411 5.02908343 2.375 8.0625 C2.08040201 12.83919598 2.08040201 12.83919598 1 15 C0.34 15 -0.32 15 -1 15 C-0.67 15.99 -0.34 16.98 0 18 C-3.63 17.34 -7.26 16.68 -11 16 C-9 13 -9 13 -5.875 12.3125 C-4.451875 12.1578125 -4.451875 12.1578125 -3 12 C-3.33 11.01 -3.66 10.02 -4 9 C-3.34 9 -2.68 9 -2 9 C-1.34 6.03 -0.68 3.06 0 0 Z " fill="#E6E4E1" transform="translate(76,12)"/>
<path d="M0 0 C2 3 2 3 2 5 C2.99 5.33 3.98 5.66 5 6 C5.66 7.32 6.32 8.64 7 10 C23.335 10.495 23.335 10.495 40 11 C40 11.33 40 11.66 40 12 C38.5162085 12.029729 38.5162085 12.029729 37.00244141 12.06005859 C33.33827923 12.13603456 29.67451836 12.22476352 26.01074219 12.31738281 C24.42390862 12.35570585 22.83698719 12.39055288 21.25 12.421875 C18.97103434 12.46745431 16.69267532 12.52545838 14.4140625 12.5859375 C13.34679428 12.60326431 13.34679428 12.60326431 12.25796509 12.62094116 C8.17896343 12.63408239 8.17896343 12.63408239 5 15 C-1.03938731 7.12253829 -1.03938731 7.12253829 -0.875 2.4375 C-0.58625 1.633125 -0.2975 0.82875 0 0 Z " fill="#F3E8DF" transform="translate(39,68)"/>
<path d="M0 0 C0.94875 0.04125 1.8975 0.0825 2.875 0.125 C2.875 3.425 2.875 6.725 2.875 10.125 C0.895 11.115 0.895 11.115 -1.125 12.125 C-1.125 11.465 -1.125 10.805 -1.125 10.125 C-1.785 9.691875 -2.445 9.25875 -3.125 8.8125 C-5.125 7.125 -5.125 7.125 -5.5 4.5625 C-4.90648953 0.70468194 -3.83959735 0.15358389 0 0 Z " fill="#575757" transform="translate(97.125,101.875)"/>
<path d="M0 0 C0.59329102 0.22163818 1.18658203 0.44327637 1.79785156 0.67163086 C1.22404984 4.33540829 -0.17484502 5.99930311 -2.79980469 8.56225586 C-3.51845703 9.27124023 -4.23710938 9.98022461 -4.97753906 10.71069336 C-5.73228516 11.44030273 -6.48703125 12.16991211 -7.26464844 12.92163086 C-8.02326172 13.66670898 -8.781875 14.41178711 -9.56347656 15.17944336 C-11.43647051 17.0170978 -13.31610455 18.8473881 -15.20214844 20.67163086 C-15.20214844 17.67163086 -15.20214844 17.67163086 -13.93286133 16.07763672 C-13.35270264 15.51955322 -12.77254395 14.96146973 -12.17480469 14.38647461 C-11.54767578 13.77352539 -10.92054687 13.16057617 -10.27441406 12.52905273 C-9.61119141 11.89547852 -8.94796875 11.2619043 -8.26464844 10.60913086 C-6.96178173 9.34956569 -5.66090118 8.08794186 -4.36230469 6.82397461 C-3.78101807 6.26701904 -3.19973145 5.71006348 -2.60083008 5.13623047 C-1.09570844 3.70400867 -1.09570844 3.70400867 -0.20214844 1.67163086 C-4.68931878 5.53527381 -9.07890197 9.41953294 -13.20214844 13.67163086 C-13.86214844 13.34163086 -14.52214844 13.01163086 -15.20214844 12.67163086 C-13.13347281 10.46843153 -11.0493305 8.28490111 -8.95214844 6.10913086 C-8.365625 5.48071289 -7.77910156 4.85229492 -7.17480469 4.20483398 C-6.60117187 3.61508789 -6.02753906 3.0253418 -5.43652344 2.41772461 C-4.9128418 1.86785889 -4.38916016 1.31799316 -3.84960938 0.75146484 C-2.20214844 -0.32836914 -2.20214844 -0.32836914 0 0 Z " fill="#CF704D" transform="translate(68.2021484375,41.328369140625)"/>
<path d="M0 0 C0.66 1.32 1.32 2.64 2 4 C-2.15789218 10.20533909 -6.90252697 16.10960871 -14.1171875 18.78515625 C-14.73851563 18.85605469 -15.35984375 18.92695312 -16 19 C-16.66 18.34 -17.32 17.68 -18 17 C-17.43152344 16.731875 -16.86304687 16.46375 -16.27734375 16.1875 C-8.90621711 12.44656094 -3.49867323 7.58890956 0 0 Z " fill="#DB7C55" transform="translate(94,73)"/>
<path d="M0 0 C1 1 1 1 1.0625 4.5625 C1.041875 5.696875 1.02125 6.83125 1 8 C0.34 8 -0.32 8 -1 8 C-1.33 6.02 -1.66 4.04 -2 2 C-2.66 2 -3.32 2 -4 2 C-4.33 3.98 -4.66 5.96 -5 8 C-5.66 8 -6.32 8 -7 8 C-7 5.69 -7 3.38 -7 1 C-7.99 1 -8.98 1 -10 1 C-10 3.31 -10 5.62 -10 8 C-10.66 8 -11.32 8 -12 8 C-12 5.36 -12 2.72 -12 0 C-7.70513628 -0.75791713 -4.22307326 -1.24208037 0 0 Z " fill="#3C3C3C" transform="translate(81,103)"/>
<path d="M0 0 C4.55555556 0.55555556 4.55555556 0.55555556 6 2 C6.1875 4.4375 6.1875 4.4375 6 7 C5.34 7.66 4.68 8.32 4 9 C-0.55555556 8.44444444 -0.55555556 8.44444444 -2 7 C-2.1875 4.5625 -2.1875 4.5625 -2 2 C-1.34 1.34 -0.68 0.68 0 0 Z " fill="#E6E6E6" transform="translate(96,13)"/>
<path d="M0 0 C4.875 0.875 4.875 0.875 6 2 C6.04092937 4.33297433 6.04241723 6.66705225 6 9 C3.69 9 1.38 9 -1 9 C-1.80967438 6.08517222 -2.21845993 4.53886783 -1.0625 1.6875 C-0.711875 1.130625 -0.36125 0.57375 0 0 Z " fill="#464646" transform="translate(85,102)"/>
<path d="M0 0 C0.33 0.66 0.66 1.32 1 2 C3.02463255 2.65213292 3.02463255 2.65213292 5 3 C5 4.65 5 6.3 5 8 C3.68 8.33 2.36 8.66 1 9 C0.34 8.01 -0.32 7.02 -1 6 C-1.37125 6.515625 -1.7425 7.03125 -2.125 7.5625 C-4 9 -4 9 -7.1875 8.6875 C-8.115625 8.460625 -9.04375 8.23375 -10 8 C-9.67 6.68 -9.34 5.36 -9 4 C-8.01 4 -7.02 4 -6 4 C-6 4.66 -6 5.32 -6 6 C-5.34 6 -4.68 6 -4 6 C-2.61061923 4.03852126 -1.2739589 2.03833424 0 0 Z " fill="#F0E4DC" transform="translate(47,17)"/>
<path d="M0 0 C-1.45745424 3.36335594 -3.31117854 5.54534005 -5.9140625 8.109375 C-6.67460938 8.86347656 -7.43515625 9.61757813 -8.21875 10.39453125 C-9.0128125 11.17183594 -9.806875 11.94914062 -10.625 12.75 C-11.42679688 13.54277344 -12.22859375 14.33554687 -13.0546875 15.15234375 C-15.03202846 17.10614493 -17.01388909 19.05512103 -19 21 C-19.66 20.67 -20.32 20.34 -21 20 C-18.39660435 17.22844136 -15.79214986 14.45787994 -13.1875 11.6875 C-12.44951172 10.90181641 -11.71152344 10.11613281 -10.95117188 9.30664062 C-10.23896484 8.54931641 -9.52675781 7.79199219 -8.79296875 7.01171875 C-7.81106567 5.96697388 -7.81106567 5.96697388 -6.80932617 4.90112305 C-6.21224854 4.27375244 -5.6151709 3.64638184 -5 3 C-4.46802002 2.4222583 -3.93604004 1.8445166 -3.38793945 1.24926758 C-2 0 -2 0 0 0 Z " fill="#F2DECD" transform="translate(68,43)"/>
<path d="M0 0 C0.66 0 1.32 0 2 0 C2.33 1.32 2.66 2.64 3 4 C3.99 2.68 4.98 1.36 6 0 C6.99 0.33 7.98 0.66 9 1 C8.34 1.66 7.68 2.32 7 3 C7.36276645 5.82957829 8.09694764 8.29084291 9 11 C8.01 10.67 7.02 10.34 6 10 C5.67 9.34 5.34 8.68 5 8 C4.34 8 3.68 8 3 8 C2.67 8.99 2.34 9.98 2 11 C1.34 11 0.68 11 0 11 C0 7.37 0 3.74 0 0 Z " fill="#434343" transform="translate(35,100)"/>
<path d="M0 0 C2.96175123 0.61277612 4.38058783 1.25372522 7 3 C7.33 2.01 7.66 1.02 8 0 C8.99 0.33 9.98 0.66 11 1 C8.36 4.63 5.72 8.26 3 12 C2.01 11.67 1.02 11.34 0 11 C0.804375 10.1646875 0.804375 10.1646875 1.625 9.3125 C2.07875 8.549375 2.5325 7.78625 3 7 C2.33903214 4.34754398 2.33903214 4.34754398 1 2 C0.67 1.34 0.34 0.68 0 0 Z " fill="#D97652" transform="translate(40,12)"/>
<path d="M0 0 C2.33944736 0.28730055 4.6739143 0.61936779 7 1 C7.33 1.99 7.66 2.98 8 4 C7.67 4.66 7.34 5.32 7 6 C-0.75 6.125 -0.75 6.125 -3 5 C-1.125 1.125 -1.125 1.125 0 0 Z " fill="#464646" transform="translate(30,11)"/>
<path d="M0 0 C2.625 0.375 2.625 0.375 5 1 C5.33 2.32 5.66 3.64 6 5 C4.02 5 2.04 5 0 5 C0 5.66 0 6.32 0 7 C1.65 7 3.3 7 5 7 C4.67 7.66 4.34 8.32 4 9 C-0.875 8.125 -0.875 8.125 -2 7 C-2.1875 4.5625 -2.1875 4.5625 -2 2 C-1.34 1.34 -0.68 0.68 0 0 Z " fill="#383838" transform="translate(104,102)"/>
<path d="M0 0 C2.51285349 4.69065985 3.12583041 8.43024558 3.0625 13.75 C3.05347656 14.73484375 3.04445313 15.7196875 3.03515625 16.734375 C3.02355469 17.48203125 3.01195313 18.2296875 3 19 C2.67 19 2.34 19 2 19 C1.71125 18.071875 1.4225 17.14375 1.125 16.1875 C0.1125 12.90208333 0.1125 12.90208333 -2 10 C-1.67 9.01 -1.34 8.02 -1 7 C-1.66 6.67 -2.32 6.34 -3 6 C-2.01 4.02 -1.02 2.04 0 0 Z " fill="#F0E1D6" transform="translate(94,49)"/>
<path d="M0 0 C2.64 0.66 5.28 1.32 8 2 C7.01 3.485 7.01 3.485 6 5 C6.66 5.66 7.32 6.32 8 7 C4.04 7 0.08 7 -4 7 C-3.34 5.35 -2.68 3.7 -2 2 C-1.34 2 -0.68 2 0 2 C0 1.34 0 0.68 0 0 Z " fill="#E9DFDA" transform="translate(63,22)"/>
<path d="M0 0 C2.31 0 4.62 0 7 0 C6.51917969 0.39832031 6.03835937 0.79664063 5.54296875 1.20703125 C3.62608175 3.43450247 3.52258357 4.78834669 3.3125 7.6875 C3.21388672 8.89986328 3.21388672 8.89986328 3.11328125 10.13671875 C3.07589844 10.75160156 3.03851563 11.36648437 3 12 C2.01 12 1.02 12 0 12 C0 8.04 0 4.08 0 0 Z " fill="#4F4E4E" transform="translate(84,12)"/>
<path d="M0 0 C0.33 0.99 0.66 1.98 1 3 C1.99 3.33 2.98 3.66 4 4 C3.01 4 2.02 4 1 4 C1 6.97 1 9.94 1 13 C2.32 13 3.64 13 5 13 C5 13.66 5 14.32 5 15 C3.33388095 15.042721 1.66617115 15.04063832 0 15 C-1.71906647 13.28093353 -1.45036917 10.97167136 -1.6875 8.625 C-1.79449219 7.64789062 -1.90148438 6.67078125 -2.01171875 5.6640625 C-2 3 -2 3 0 0 Z " fill="#353234" transform="translate(56,9)"/>
<path d="M0 0 C2.31 0 4.62 0 7 0 C7 0.66 7 1.32 7 2 C5.35 2 3.7 2 2 2 C2 2.66 2 3.32 2 4 C2.99 4 3.98 4 5 4 C5 4.66 5 5.32 5 6 C4.01 6 3.02 6 2 6 C2 7.65 2 9.3 2 11 C1.34 11 0.68 11 0 11 C0 7.37 0 3.74 0 0 Z " fill="#454545" transform="translate(17,100)"/>
<path d="M0 0 C-0.33 0.66 -0.66 1.32 -1 2 C-4.34890621 3.11630207 -6.97539261 3.16765424 -10.5 3.1875 C-11.6446875 3.20167969 -12.789375 3.21585937 -13.96875 3.23046875 C-17 3 -17 3 -20 1 C-17.79187393 0.83060951 -15.58348776 0.66460778 -13.375 0.5 C-12.14523438 0.4071875 -10.91546875 0.314375 -9.6484375 0.21875 C-6.41962143 0.02515931 -3.23321325 -0.03979339 0 0 Z " fill="#E06B40" transform="translate(78,91)"/>
<path d="M0 0 C2.97 0 5.94 0 9 0 C9 0.66 9 1.32 9 2 C7.68 2 6.36 2 5 2 C5 4.97 5 7.94 5 11 C4.34 11 3.68 11 3 11 C3 8.03 3 5.06 3 2 C2.01 2 1.02 2 0 2 C0 1.34 0 0.68 0 0 Z " fill="#434343" transform="translate(25,100)"/>
<path d="M0 0 C0.33 0 0.66 0 1 0 C0.67 3.63 0.34 7.26 0 11 C-0.33 10.34 -0.66 9.68 -1 9 C-1.99 9.495 -1.99 9.495 -3 10 C-4.99960012 10.039992 -7.00047242 10.04346799 -9 10 C-9.33 9.01 -9.66 8.02 -10 7 C-7.03 7 -4.06 7 -1 7 C-0.67 4.69 -0.34 2.38 0 0 Z " fill="#ECECEC" transform="translate(75,12)"/>
<path d="M0 0 C2.38663575 3.57995362 2.16431099 4.86626164 1.8125 9.0625 C1.73644531 10.12597656 1.66039062 11.18945312 1.58203125 12.28515625 C1 15 1 15 -2 17 C-2.3690205 5.47835991 -2.3690205 5.47835991 0 0 Z " fill="#E39271" transform="translate(35,49)"/>
<path d="M0 0 C1.65 0.33 3.3 0.66 5 1 C4.67 2.65 4.34 4.3 4 6 C2.35 5.67 0.7 5.34 -1 5 C-0.67 3.35 -0.34 1.7 0 0 Z " fill="#F3E9E1" transform="translate(43,66)"/>
<path d="M0 0 C0.66 0.66 1.32 1.32 2 2 C1.49339844 2.68835937 1.49339844 2.68835937 0.9765625 3.390625 C-2.36308951 7.98192426 -2.36308951 7.98192426 -5 13 C-5.33 13 -5.66 13 -6 13 C-5.63118644 6.85310727 -4.09949571 4.30972626 0 0 Z " fill="#D8744B" transform="translate(42,39)"/>
<path d="M0 0 C0.3403125 0.9590625 0.3403125 0.9590625 0.6875 1.9375 C1.8477167 4.24368747 1.8477167 4.24368747 4.5 4.8125 C6.99790956 5.21473491 6.99790956 5.21473491 9 4 C9.33 4.99 9.66 5.98 10 7 C9 8 9 8 7.15234375 8.09765625 C5.1015625 8.06510417 3.05078125 8.03255208 1 8 C-1.125 3.375 -1.125 3.375 0 0 Z " fill="#434343" transform="translate(93,16)"/>
<path d="M0 0 C1.62938774 0.59223134 3.25341128 1.19923628 4.875 1.8125 C6.23238281 2.31716797 6.23238281 2.31716797 7.6171875 2.83203125 C10 4 10 4 12 7 C6.29290936 6.53411505 2.84060277 5.06242216 -2 2 C-1.34 1.34 -0.68 0.68 0 0 Z " fill="#DA7F55" transform="translate(49,87)"/>
<path d="M0 0 C0.99 0.66 1.98 1.32 3 2 C3.36328125 3.875 3.36328125 3.875 3.3125 6 C3.30863281 6.70125 3.30476563 7.4025 3.30078125 8.125 C3 10 3 10 1 12 C0.26919734 10.02253397 -0.39421747 8.01927511 -1 6 C-0.67 5.34 -0.34 4.68 0 4 C-0.66 3.67 -1.32 3.34 -2 3 C-1.34 2.01 -0.68 1.02 0 0 Z " fill="#F3EDE5" transform="translate(93,61)"/>
<path d="M0 0 C1.98 0 3.96 0 6 0 C5.51917969 0.39832031 5.03835937 0.79664063 4.54296875 1.20703125 C2.62608175 3.43450247 2.52258357 4.78834669 2.3125 7.6875 C2.21388672 8.89986328 2.21388672 8.89986328 2.11328125 10.13671875 C2.07589844 10.75160156 2.03851563 11.36648437 2 12 C1.34 12 0.68 12 0 12 C0 8.04 0 4.08 0 0 Z " fill="#343333" transform="translate(76,12)"/>
<path d="M0 0 C1.32 0 2.64 0 4 0 C4 0.66 4 1.32 4 2 C3.34 2 2.68 2 2 2 C2 4.31 2 6.62 2 9 C1.01 9 0.02 9 -1 9 C-1.09765625 2.84765625 -1.09765625 2.84765625 -1 1 C-0.67 0.67 -0.34 0.34 0 0 Z " fill="#696969" transform="translate(112,102)"/>
<path d="M0 0 C0.33 0.66 0.66 1.32 1 2 C0.360625 2.763125 -0.27875 3.52625 -0.9375 4.3125 C-3.14232781 6.88246713 -3.14232781 6.88246713 -4 10 C-6.375 11.25 -6.375 11.25 -9 12 C-9.99 11.67 -10.98 11.34 -12 11 C-11.46890625 10.62488281 -10.9378125 10.24976562 -10.390625 9.86328125 C-6.31226272 6.90870127 -2.93808 4.16228001 0 0 Z " fill="#F3EAE1" transform="translate(94,79)"/>
<path d="M0 0 C2.64 0 5.28 0 8 0 C6.875 2 6.875 2 5 4 C1.8125 4.25 1.8125 4.25 -1 4 C-0.67 2.68 -0.34 1.36 0 0 Z " fill="#F1F4EF" transform="translate(51,64)"/>
<path d="M0 0 C4.875 0.875 4.875 0.875 6 2 C6.04092937 4.33297433 6.04241723 6.66705225 6 9 C5.34 9 4.68 9 4 9 C3.67 7.02 3.34 5.04 3 3 C2.01 3 1.02 3 0 3 C0 2.01 0 1.02 0 0 Z " fill="#515151" transform="translate(76,102)"/>
<path d="M0 0 C-0.66 1.32 -1.32 2.64 -2 4 C-3.32 3.67 -4.64 3.34 -6 3 C-5.34 3 -4.68 3 -4 3 C-4 2.34 -4 1.68 -4 1 C-5.65 1.33 -7.3 1.66 -9 2 C-6.98558063 -2.02883874 -3.72407517 -0.90585612 0 0 Z " fill="#F0E7DD" transform="translate(64,58)"/>
<path d="M0 0 C1.65 0.33 3.3 0.66 5 1 C5.33 1.99 5.66 2.98 6 4 C3.69 4 1.38 4 -1 4 C-0.67 2.68 -0.34 1.36 0 0 Z " fill="#CECECE" transform="translate(66,13)"/>
<path d="M0 0 C1.65 0.33 3.3 0.66 5 1 C5 1.99 5 2.98 5 4 C2.69 4 0.38 4 -2 4 C-1.34 2.68 -0.68 1.36 0 0 Z " fill="#CFCFCF" transform="translate(31,13)"/>
<path d="M0 0 C0.33 0 0.66 0 1 0 C1 3.3 1 6.6 1 10 C0.01 10.33 -0.98 10.66 -2 11 C-2 10.34 -2 9.68 -2 9 C-2.66 8.67 -3.32 8.34 -4 8 C-4 7.34 -4 6.68 -4 6 C-2.68 6 -1.36 6 0 6 C0 4.02 0 2.04 0 0 Z " fill="#3C3C3C" transform="translate(98,103)"/>
<path d="M0 0 C1.65 0.33 3.3 0.66 5 1 C5.33 1.99 5.66 2.98 6 4 C4.02 4 2.04 4 0 4 C0 2.68 0 1.36 0 0 Z " fill="#717171" transform="translate(104,102)"/>
<path d="M0 0 C2.475 0.495 2.475 0.495 5 1 C5 2.65 5 4.3 5 6 C4.34 6 3.68 6 3 6 C3 5.34 3 4.68 3 4 C2.34 4 1.68 4 1 4 C0.67 4.66 0.34 5.32 0 6 C0 4.02 0 2.04 0 0 Z " fill="#686868" transform="translate(49,102)"/>
<path d="M0 0 C0.66 0.66 1.32 1.32 2 2 C1.34 3.65 0.68 5.3 0 7 C-0.99 7 -1.98 7 -3 7 C-3.33 5.68 -3.66 4.36 -4 3 C-2.68 2.01 -1.36 1.02 0 0 Z " fill="#E3E3E3" transform="translate(45,100)"/>
<path d="M0 0 C3.375 -0.125 3.375 -0.125 7 0 C7.66 0.66 8.32 1.32 9 2 C6.29120665 3.35439668 3.99066732 3.06501451 1 3 C0.67 2.01 0.34 1.02 0 0 Z " fill="#EDEDED" transform="translate(30,19)"/>
<path d="M0 0 C0.33 0 0.66 0 1 0 C1 2.31 1 4.62 1 7 C-1.31 7 -3.62 7 -6 7 C-5.67 5.68 -5.34 4.36 -5 3 C-4.01 3 -3.02 3 -2 3 C-2 3.99 -2 4.98 -2 6 C-1.34 6 -0.68 6 0 6 C0 4.02 0 2.04 0 0 Z " fill="#9D9D9D" transform="translate(90,104)"/>
<path d="M0 0 C1.99954746 -0.04254356 4.00041636 -0.04080783 6 0 C7 1 7 1 7.0625 3.5625 C7.041875 4.366875 7.02125 5.17125 7 6 C4.36 6 1.72 6 -1 6 C-1 5.67 -1 5.34 -1 5 C1.31 5 3.62 5 6 5 C3.9927092 1.9890638 3.16115776 1.36983503 0 0 Z " fill="#202020" transform="translate(66,12)"/>
<path d="M0 0 C0.99 0.66 1.98 1.32 3 2 C1.68 3.65 0.36 5.3 -1 7 C-1 6.34 -1 5.68 -1 5 C-1.66 5 -2.32 5 -3 5 C-3 4.01 -3 3.02 -3 2 C-2.01 1.34 -1.02 0.68 0 0 Z " fill="#F4EDEA" transform="translate(36,42)"/>
<path d="M0 0 C-0.99 1.485 -0.99 1.485 -2 3 C-5.625 3.1875 -5.625 3.1875 -9 3 C-7 0 -7 0 -5.0625 -0.75 C-3 -1 -3 -1 0 0 Z " fill="#F5F3F4" transform="translate(74,25)"/>
<path d="M0 0 C1.485 0.99 1.485 0.99 3 2 C3.1875 5.625 3.1875 5.625 3 9 C2.01 9.495 2.01 9.495 1 10 C0 3.375 0 3.375 0 0 Z " fill="#313131" transform="translate(101,12)"/>
<path d="M0 0 C0.66 0.66 1.32 1.32 2 2 C1.34 2.66 0.68 3.32 0 4 C-0.70710678 5.64991582 -1.37943989 7.31562256 -2 9 C-2.33 8.34 -2.66 7.68 -3 7 C-2.67 6.01 -2.34 5.02 -2 4 C-2.99 4 -3.98 4 -5 4 C-3.74458443 1.48916886 -2.49936512 1.12874554 0 0 Z " fill="#DA8C6A" transform="translate(51,61)"/>
<path d="M0 0 C2 1.375 2 1.375 4 3 C4 3.66 4 4.32 4 5 C2.68 5.33 1.36 5.66 0 6 C-0.38218767 4.34385343 -0.71395102 2.67542976 -1 1 C-0.67 0.67 -0.34 0.34 0 0 Z " fill="#E1AA96" transform="translate(48,20)"/>
<path d="M0 0 C0.99 0 1.98 0 3 0 C3 1.65 3 3.3 3 5 C1.68 4.67 0.36 4.34 -1 4 C-0.67 2.68 -0.34 1.36 0 0 Z " fill="#DCDCDC" transform="translate(95,104)"/>
<path d="M0 0 C-1.39332574 3.36720387 -2.9789286 4.9859524 -6 7 C-6 4 -6 4 -4.125 1.8125 C-2 0 -2 0 0 0 Z " fill="#DA8567" transform="translate(54,55)"/>
<path d="M0 0 C1.9375 0.75 1.9375 0.75 4 2 C4.75 4.125 4.75 4.125 5 6 C4.01 6.495 4.01 6.495 3 7 C0 2.25 0 2.25 0 0 Z " fill="#DD724A" transform="translate(91,42)"/>
</svg>
